<svg width="1373" height="597" viewBox="0 0 1373 597" fill="none" xmlns="http://www.w3.org/2000/svg">
<path d="M99 258C92.6965 258 86.4548 256.758 80.6312 254.346C74.8076 251.934 69.5161 248.398 65.0589 243.941C60.6017 239.484 57.066 234.192 54.6538 228.369C52.2416 222.545 51 216.303 51 210C51 203.697 52.2416 197.455 54.6538 191.631C57.066 185.808 60.6017 180.516 65.0589 176.059C69.5161 171.602 74.8076 168.066 80.6312 165.654C86.4548 163.242 92.6966 162 99 162L99 162.96C92.8226 162.96 86.7057 164.177 80.9986 166.541C75.2914 168.905 70.1058 172.37 65.7377 176.738C61.3696 181.106 57.9047 186.291 55.5407 191.999C53.1767 197.706 51.96 203.823 51.96 210C51.96 216.177 53.1767 222.294 55.5407 228.001C57.9047 233.709 61.3696 238.894 65.7377 243.262C70.1058 247.63 75.2914 251.095 80.9986 253.459C86.7057 255.823 92.8226 257.04 99 257.04L99 258Z" fill="black"/>
<path d="M1239 549C1249.24 549 1259.39 546.982 1268.85 543.063C1278.31 539.143 1286.91 533.397 1294.15 526.154C1301.4 518.911 1307.14 510.313 1311.06 500.849C1314.98 491.386 1317 481.243 1317 471C1317 460.757 1314.98 450.614 1311.06 441.151C1307.14 431.687 1301.4 423.089 1294.15 415.846C1286.91 408.603 1278.31 402.857 1268.85 398.937C1259.39 395.018 1249.24 393 1239 393L1239 394.56C1249.04 394.56 1258.98 396.537 1268.25 400.379C1277.53 404.22 1285.95 409.851 1293.05 416.949C1300.15 424.047 1305.78 432.474 1309.62 441.748C1313.46 451.022 1315.44 460.962 1315.44 471C1315.44 481.038 1313.46 490.978 1309.62 500.252C1305.78 509.526 1300.15 517.953 1293.05 525.051C1285.95 532.149 1277.53 537.78 1268.25 541.621C1258.98 545.463 1249.04 547.44 1239 547.44L1239 549Z" fill="black"/>
<mask id="path-3-inside-1_31_71" fill="white">
<path d="M99 273C90.7267 273 82.5345 271.37 74.8909 268.204C67.2474 265.038 60.3024 260.398 54.4523 254.548C48.6022 248.698 43.9616 241.753 40.7956 234.109C37.6295 226.466 36 218.273 36 210C36 201.727 37.6295 193.534 40.7956 185.891C43.9616 178.247 48.6022 171.302 54.4523 165.452C60.3024 159.602 67.2474 154.962 74.891 151.796C82.5345 148.63 90.7267 147 99 147L99 148.26C90.8922 148.26 82.8638 149.857 75.3731 152.96C67.8825 156.062 61.0763 160.61 55.3432 166.343C49.6101 172.076 45.0624 178.882 41.9597 186.373C38.857 193.864 37.26 201.892 37.26 210C37.26 218.108 38.857 226.136 41.9597 233.627C45.0624 241.118 49.6101 247.924 55.3432 253.657C61.0763 259.39 67.8825 263.938 75.3731 267.04C82.8638 270.143 90.8922 271.74 99 271.74L99 273Z"/>
</mask>
<path d="M99 273C90.7267 273 82.5345 271.37 74.8909 268.204C67.2474 265.038 60.3024 260.398 54.4523 254.548C48.6022 248.698 43.9616 241.753 40.7956 234.109C37.6295 226.466 36 218.273 36 210C36 201.727 37.6295 193.534 40.7956 185.891C43.9616 178.247 48.6022 171.302 54.4523 165.452C60.3024 159.602 67.2474 154.962 74.891 151.796C82.5345 148.63 90.7267 147 99 147L99 148.26C90.8922 148.26 82.8638 149.857 75.3731 152.96C67.8825 156.062 61.0763 160.61 55.3432 166.343C49.6101 172.076 45.0624 178.882 41.9597 186.373C38.857 193.864 37.26 201.892 37.26 210C37.26 218.108 38.857 226.136 41.9597 233.627C45.0624 241.118 49.6101 247.924 55.3432 253.657C61.0763 259.39 67.8825 263.938 75.3731 267.04C82.8638 270.143 90.8922 271.74 99 271.74L99 273Z" stroke="black" stroke-width="4" stroke-dasharray="42 42" mask="url(#path-3-inside-1_31_71)"/>
<mask id="path-4-inside-2_31_71" fill="white">
<path d="M1239 574C1252.53 574 1265.92 571.336 1278.42 566.16C1290.91 560.983 1302.27 553.396 1311.83 543.832C1321.4 534.268 1328.98 522.913 1334.16 510.416C1339.34 497.92 1342 484.526 1342 471C1342 457.474 1339.34 444.08 1334.16 431.584C1328.98 419.087 1321.4 407.732 1311.83 398.168C1302.27 388.604 1290.91 381.017 1278.42 375.84C1265.92 370.664 1252.53 368 1239 368L1239 370.06C1252.26 370.06 1265.38 372.671 1277.63 377.744C1289.87 382.816 1301 390.251 1310.38 399.625C1319.75 408.998 1327.18 420.125 1332.26 432.372C1337.33 444.619 1339.94 457.744 1339.94 471C1339.94 484.256 1337.33 497.381 1332.26 509.628C1327.18 521.875 1319.75 533.002 1310.38 542.375C1301 551.749 1289.87 559.184 1277.63 564.256C1265.38 569.329 1252.26 571.94 1239 571.94L1239 574Z"/>
</mask>
<path d="M1239 574C1252.53 574 1265.92 571.336 1278.42 566.16C1290.91 560.983 1302.27 553.396 1311.83 543.832C1321.4 534.268 1328.98 522.913 1334.16 510.416C1339.34 497.92 1342 484.526 1342 471C1342 457.474 1339.34 444.08 1334.16 431.584C1328.98 419.087 1321.4 407.732 1311.83 398.168C1302.27 388.604 1290.91 381.017 1278.42 375.84C1265.92 370.664 1252.53 368 1239 368L1239 370.06C1252.26 370.06 1265.38 372.671 1277.63 377.744C1289.87 382.816 1301 390.251 1310.38 399.625C1319.75 408.998 1327.18 420.125 1332.26 432.372C1337.33 444.619 1339.94 457.744 1339.94 471C1339.94 484.256 1337.33 497.381 1332.26 509.628C1327.18 521.875 1319.75 533.002 1310.38 542.375C1301 551.749 1289.87 559.184 1277.63 564.256C1265.38 569.329 1252.26 571.94 1239 571.94L1239 574Z" stroke="black" stroke-width="4" stroke-dasharray="42 42" mask="url(#path-4-inside-2_31_71)"/>
<path d="M99 242C94.7977 242 90.6365 241.172 86.7541 239.564C82.8717 237.956 79.3441 235.599 76.3726 232.627C73.4011 229.656 71.044 226.128 69.4359 222.246C67.8277 218.363 67 214.202 67 210C67 205.798 67.8277 201.637 69.4359 197.754C71.044 193.872 73.4011 190.344 76.3726 187.373C79.3441 184.401 82.8717 182.044 86.7541 180.436C90.6366 178.828 94.7977 178 99 178L99 178.64C94.8818 178.64 90.8038 179.451 86.9991 181.027C83.1943 182.603 79.7372 184.913 76.8251 187.825C73.9131 190.737 71.6031 194.194 70.0271 197.999C68.4512 201.804 67.64 205.882 67.64 210C67.64 214.118 68.4512 218.196 70.0271 222.001C71.6031 225.806 73.9131 229.263 76.8251 232.175C79.7372 235.087 83.1943 237.397 86.999 238.973C90.8038 240.549 94.8817 241.36 99 241.36L99 242Z" fill="black"/>
<path d="M1239 523C1245.83 523 1252.59 521.655 1258.9 519.042C1265.21 516.428 1270.94 512.598 1275.77 507.77C1280.6 502.941 1284.43 497.208 1287.04 490.9C1289.65 484.591 1291 477.829 1291 471C1291 464.171 1289.65 457.409 1287.04 451.1C1284.43 444.792 1280.6 439.059 1275.77 434.23C1270.94 429.402 1265.21 425.572 1258.9 422.958C1252.59 420.345 1245.83 419 1239 419L1239 420.04C1245.69 420.04 1252.32 421.358 1258.5 423.919C1264.68 426.48 1270.3 430.234 1275.03 434.966C1279.77 439.698 1283.52 445.316 1286.08 451.498C1288.64 457.681 1289.96 464.308 1289.96 471C1289.96 477.692 1288.64 484.319 1286.08 490.502C1283.52 496.684 1279.77 502.302 1275.03 507.034C1270.3 511.766 1264.68 515.52 1258.5 518.081C1252.32 520.642 1245.69 521.96 1239 521.96L1239 523Z" fill="black"/>
<path d="M839 102L889.359 52.1749H914.888M1011.76 52.1749H914.888M914.888 52.1749L956.504 11H1145" stroke="black" stroke-width="2"/>
<circle cx="1020" cy="52" r="5.5" stroke="black"/>
<circle cx="1035" cy="52" r="5.5" stroke="black"/>
<circle cx="1050" cy="52" r="5.5" stroke="black"/>
<circle cx="1065" cy="52" r="5.5" stroke="black"/>
<circle cx="1155" cy="11" r="9.5" stroke="black"/>
<line x1="1165.57" y1="0.353553" x2="1144.35" y2="21.5668" stroke="black"/>
<path d="M497 102L459.5 64.5H363.75M158.5 84.5H248L268 64.5H363.75M363.75 64.5L328 28.75H231.5" stroke="black" stroke-width="2"/>
<path d="M99 123.5H26" stroke="black"/>
<path d="M25.5 128.33L18 124L25.5 119.67V128.33Z" stroke="black"/>
<path d="M16.5 128.33L9 124L16.5 119.67V128.33Z" stroke="black"/>
<path d="M8.5 128.33L1 124L8.5 119.67V128.33Z" stroke="black"/>
<path d="M74 230L20 283.5H99" stroke="black"/>
<rect x="148.5" y="80.5" width="7" height="7" stroke="black"/>
<rect x="138.5" y="80.5" width="7" height="7" stroke="black"/>
<rect x="222" y="25" width="3" height="6" stroke="black"/>
<rect x="217" y="25" width="3" height="6" stroke="black"/>
<rect x="212" y="25" width="3" height="6" stroke="black"/>
<rect x="207" y="25" width="3" height="6" stroke="black"/>
<rect x="202" y="25" width="3" height="6" stroke="black"/>
<rect x="197" y="25" width="3" height="6" stroke="black"/>
<path d="M1239 137H1283" stroke="black" stroke-width="2"/>
<circle cx="1289" cy="137" r="6" fill="black"/>
<path d="M1239 217H1254.5" stroke="black"/>
<path d="M1274 217H1289.5" stroke="black"/>
<circle cx="1257" cy="217" r="3" stroke="black"/>
<circle cx="1264" cy="217" r="3" stroke="black"/>
<circle cx="1271" cy="217" r="3" stroke="black"/>
<path d="M1298 217L1289 222.196L1289 211.804L1298 217Z" fill="black"/>
<path d="M1307 217L1298 222.196L1298 211.804L1307 217Z" fill="black"/>
<path d="M1315 217L1306 222.196L1306 211.804L1315 217Z" fill="black"/>
<path d="M1309.5 372.5V372H1309.29L1309.15 372.146L1309.5 372.5ZM1353.39 372.5L1350.5 369.613L1347.61 372.5L1350.5 375.387L1353.39 372.5ZM1278.35 404.354L1309.85 372.854L1309.15 372.146L1277.65 403.646L1278.35 404.354ZM1309.5 373H1350.5V372H1309.5V373Z" fill="black"/>
<path d="M1315 570.5L1314.65 570.854L1314.79 571H1315V570.5ZM1352.5 570.5L1352.85 570.146L1352.71 570H1352.5V570.5ZM1366.11 584.818L1367.96 590.041L1372.04 585.959L1366.82 584.111L1366.11 584.818ZM1280.65 536.854L1314.65 570.854L1315.35 570.146L1281.35 536.146L1280.65 536.854ZM1315 571H1352.5V570H1315V571ZM1352.15 570.854L1366.46 585.172L1367.17 584.464L1352.85 570.146L1352.15 570.854Z" fill="black"/>
<path d="M99.5 326.5L77.7055 348V390.5L62.5 405.5V430.5" stroke="black"/>
<path d="M99.5 596L77.7055 574.5V532L62.5 517V492" stroke="black"/>
<circle cx="63" cy="437" r="4" stroke="black"/>
<circle cx="63" cy="449" r="4" stroke="black"/>
<circle cx="63" cy="461" r="4" stroke="black"/>
<circle cx="63" cy="473" r="4" stroke="black"/>
<circle cx="63" cy="485" r="4" stroke="black"/>
</svg>
