<svg width="384" height="266" viewBox="0 0 384 266" fill="none" xmlns="http://www.w3.org/2000/svg">
<rect x="36.5" y="26.5" width="310" height="239" fill="url(#paint0_linear_32_122)" stroke="url(#paint1_linear_32_122)"/>
<path d="M36 44L25 44" stroke="black"/>
<path d="M20 44L24.5 41.4019V46.5981L20 44Z" stroke="black"/>
<path d="M14 44L18.5 41.4019V46.5981L14 44Z" stroke="black"/>
<path d="M8 44L12.5 41.4019V46.5981L8 44Z" stroke="black"/>
<path d="M36.5 110C33.8079 110 31.1422 109.483 28.655 108.478C26.1678 107.472 23.9079 105.999 22.0043 104.142C20.1007 102.285 18.5907 100.08 17.5605 97.6537C16.5302 95.2272 16 92.6264 16 90C16 87.3736 16.5302 84.7728 17.5605 82.3463C18.5907 79.9198 20.1007 77.715 22.0043 75.8579C23.9079 74.0007 26.1678 72.5275 28.655 71.5224C31.1422 70.5173 33.8079 70 36.5 70L36.5 70.4C33.8617 70.4 31.2493 70.907 28.8119 71.892C26.3745 72.877 24.1598 74.3207 22.2942 76.1407C20.4287 77.9607 18.9489 80.1214 17.9393 82.4994C16.9296 84.8774 16.41 87.4261 16.41 90C16.41 92.5739 16.9296 95.1226 17.9393 97.5006C18.9489 99.8786 20.4287 102.039 22.2942 103.859C24.1598 105.679 26.3745 107.123 28.8119 108.108C31.2493 109.093 33.8617 109.6 36.5 109.6L36.5 110Z" fill="black"/>
<mask id="path-7-inside-1_32_122" fill="white">
<path d="M36.5 117C33.02 117 29.574 116.315 26.3589 114.983C23.1438 113.651 20.2224 111.699 17.7617 109.238C15.3009 106.778 13.3489 103.856 12.0172 100.641C10.6854 97.426 10 93.98 10 90.5C10 87.02 10.6854 83.574 12.0172 80.3589C13.3489 77.1438 15.3009 74.2224 17.7617 71.7617C20.2224 69.3009 23.1438 67.3489 26.3589 66.0172C29.574 64.6854 33.02 64 36.5 64L36.5 64.53C33.0896 64.53 29.7125 65.2017 26.5617 66.5068C23.4109 67.812 20.548 69.7249 18.1364 72.1364C15.7249 74.548 13.812 77.4109 12.5069 80.5617C11.2017 83.7125 10.53 87.0896 10.53 90.5C10.53 93.9104 11.2017 97.2875 12.5068 100.438C13.812 103.589 15.7249 106.452 18.1364 108.864C20.548 111.275 23.4109 113.188 26.5617 114.493C29.7125 115.798 33.0896 116.47 36.5 116.47L36.5 117Z"/>
</mask>
<path d="M36.5 117C33.02 117 29.574 116.315 26.3589 114.983C23.1438 113.651 20.2224 111.699 17.7617 109.238C15.3009 106.778 13.3489 103.856 12.0172 100.641C10.6854 97.426 10 93.98 10 90.5C10 87.02 10.6854 83.574 12.0172 80.3589C13.3489 77.1438 15.3009 74.2224 17.7617 71.7617C20.2224 69.3009 23.1438 67.3489 26.3589 66.0172C29.574 64.6854 33.02 64 36.5 64L36.5 64.53C33.0896 64.53 29.7125 65.2017 26.5617 66.5068C23.4109 67.812 20.548 69.7249 18.1364 72.1364C15.7249 74.548 13.812 77.4109 12.5069 80.5617C11.2017 83.7125 10.53 87.0896 10.53 90.5C10.53 93.9104 11.2017 97.2875 12.5068 100.438C13.812 103.589 15.7249 106.452 18.1364 108.864C20.548 111.275 23.4109 113.188 26.5617 114.493C29.7125 115.798 33.0896 116.47 36.5 116.47L36.5 117Z" stroke="black" stroke-width="2" stroke-dasharray="42 42" mask="url(#path-7-inside-1_32_122)"/>
<path d="M36.5 104C34.5958 104 32.7103 103.651 30.9511 102.972C29.1919 102.294 27.5934 101.3 26.247 100.046C24.9005 98.7924 23.8324 97.3041 23.1037 95.6662C22.3751 94.0283 22 92.2728 22 90.5C22 88.7272 22.3751 86.9717 23.1037 85.3338C23.8324 83.6959 24.9005 82.2076 26.247 80.9541C27.5934 79.7005 29.1919 78.7061 30.9511 78.0276C32.7103 77.3492 34.5958 77 36.5 77L36.5 77.27C34.6339 77.27 32.7861 77.6122 31.0621 78.2771C29.338 78.9419 27.7715 79.9165 26.452 81.145C25.1325 82.3735 24.0858 83.832 23.3717 85.4371C22.6576 87.0422 22.29 88.7626 22.29 90.5C22.29 92.2374 22.6576 93.9578 23.3717 95.5629C24.0858 97.168 25.1325 98.6265 26.452 99.855C27.7715 101.084 29.338 102.058 31.0621 102.723C32.7861 103.388 34.6339 103.73 36.5 103.73L36.5 104Z" fill="black"/>
<path d="M25.2405 100L2 121H36" stroke="black"/>
<path d="M36.5 132.5L23.0411 142.303V160.692L14 167.183V178" stroke="black"/>
<path d="M36.5 237.5L23.0411 227.697V209.308L14 202.817V192" stroke="black"/>
<circle cx="14" cy="182" r="1" stroke="black"/>
<circle cx="14" cy="179" r="1" stroke="black"/>
<circle cx="14" cy="188" r="1" stroke="black"/>
<circle cx="14" cy="185" r="1" stroke="black"/>
<circle cx="14" cy="191" r="1" stroke="black"/>
<path d="M132 26.5L123.027 15.6677H100.114M51 20.5H72.4165L77.2024 15.6677H100.114M100.114 15.6677L91.5598 6H68.4682" stroke="black" stroke-linejoin="round"/>
<rect x="64" y="3" width="3" height="6" stroke="black"/>
<rect x="59" y="3" width="3" height="6" stroke="black"/>
<rect x="54" y="3" width="3" height="6" stroke="black"/>
<rect x="49" y="3" width="3" height="6" stroke="black"/>
<rect x="44" y="3" width="3" height="6" stroke="black"/>
<rect x="39" y="3" width="3" height="6" stroke="black"/>
<rect x="43.5" y="16.5" width="7" height="7" stroke="black"/>
<rect x="33.5" y="16.5" width="7" height="7" stroke="black"/>
<path d="M247 26.5063L260.33 15.2785H267.088M292.73 15.2785H267.088M267.088 15.2785L278.104 6H328" stroke="black"/>
<circle cx="296" cy="15" r="3" stroke="black"/>
<circle cx="306" cy="15" r="3" stroke="black"/>
<circle cx="316" cy="15" r="3" stroke="black"/>
<circle cx="326" cy="15" r="3" stroke="black"/>
<circle cx="333" cy="6" r="5" stroke="black"/>
<line x1="338.253" y1="1.35355" x2="328.353" y2="11.253" stroke="black"/>
<path d="M346.5 171C349.323 171 352.119 170.444 354.728 169.363C357.336 168.283 359.706 166.699 361.703 164.703C363.699 162.706 365.283 160.336 366.363 157.728C367.444 155.119 368 152.323 368 149.5C368 146.677 367.444 143.881 366.363 141.272C365.283 138.664 363.699 136.294 361.703 134.297C359.706 132.301 357.336 130.717 354.728 129.637C352.119 128.556 349.323 128 346.5 128L346.5 128.43C349.267 128.43 352.007 128.975 354.563 130.034C357.119 131.093 359.442 132.645 361.399 134.601C363.355 136.558 364.907 138.881 365.966 141.437C367.025 143.993 367.57 146.733 367.57 149.5C367.57 152.267 367.025 155.007 365.966 157.563C364.907 160.119 363.355 162.442 361.399 164.399C359.442 166.355 357.119 167.907 354.563 168.966C352.007 170.025 349.267 170.57 346.5 170.57L346.5 171Z" fill="black"/>
<mask id="path-34-inside-2_32_122" fill="white">
<path d="M346.5 178C350.243 178 353.949 177.263 357.406 175.831C360.864 174.398 364.006 172.299 366.653 169.653C369.299 167.006 371.398 163.864 372.831 160.406C374.263 156.949 375 153.243 375 149.5C375 145.757 374.263 142.051 372.831 138.594C371.398 135.136 369.299 131.994 366.653 129.347C364.006 126.701 360.864 124.602 357.406 123.169C353.949 121.737 350.243 121 346.5 121L346.5 121.57C350.168 121.57 353.8 122.292 357.188 123.696C360.577 125.1 363.656 127.157 366.249 129.751C368.843 132.344 370.9 135.423 372.304 138.812C373.708 142.2 374.43 145.832 374.43 149.5C374.43 153.168 373.708 156.8 372.304 160.188C370.9 163.577 368.843 166.656 366.249 169.249C363.656 171.843 360.577 173.9 357.188 175.304C353.8 176.708 350.168 177.43 346.5 177.43L346.5 178Z"/>
</mask>
<path d="M346.5 178C350.243 178 353.949 177.263 357.406 175.831C360.864 174.398 364.006 172.299 366.653 169.653C369.299 167.006 371.398 163.864 372.831 160.406C374.263 156.949 375 153.243 375 149.5C375 145.757 374.263 142.051 372.831 138.594C371.398 135.136 369.299 131.994 366.653 129.347C364.006 126.701 360.864 124.602 357.406 123.169C353.949 121.737 350.243 121 346.5 121L346.5 121.57C350.168 121.57 353.8 122.292 357.188 123.696C360.577 125.1 363.656 127.157 366.249 129.751C368.843 132.344 370.9 135.423 372.304 138.812C373.708 142.2 374.43 145.832 374.43 149.5C374.43 153.168 373.708 156.8 372.304 160.188C370.9 163.577 368.843 166.656 366.249 169.249C363.656 171.843 360.577 173.9 357.188 175.304C353.8 176.708 350.168 177.43 346.5 177.43L346.5 178Z" stroke="black" stroke-width="2" stroke-dasharray="42 42" mask="url(#path-34-inside-2_32_122)"/>
<path d="M346.5 164C348.404 164 350.29 163.625 352.049 162.896C353.808 162.168 355.407 161.099 356.753 159.753C358.099 158.407 359.168 156.808 359.896 155.049C360.625 153.29 361 151.404 361 149.5C361 147.596 360.625 145.71 359.896 143.951C359.168 142.192 358.099 140.593 356.753 139.247C355.407 137.901 353.808 136.832 352.049 136.104C350.29 135.375 348.404 135 346.5 135L346.5 135.29C348.366 135.29 350.214 135.658 351.938 136.372C353.662 137.086 355.228 138.132 356.548 139.452C357.868 140.772 358.914 142.338 359.628 144.062C360.342 145.786 360.71 147.634 360.71 149.5C360.71 151.366 360.342 153.214 359.628 154.938C358.914 156.662 357.868 158.228 356.548 159.548C355.228 160.868 353.662 161.914 351.938 162.628C350.214 163.342 348.366 163.71 346.5 163.71L346.5 164Z" fill="black"/>
<path d="M347 48H365" stroke="black"/>
<circle cx="368" cy="48" r="3" fill="black"/>
<path d="M346 81H352" stroke="black"/>
<path d="M366 81H372" stroke="black"/>
<circle cx="354" cy="81" r="2" stroke="black"/>
<circle cx="359" cy="81" r="2" stroke="black"/>
<circle cx="364" cy="81" r="2" stroke="black"/>
<path d="M376 81L371.5 83.5981L371.5 78.4019L376 81Z" fill="black"/>
<path d="M380 81L375.5 83.5981L375.5 78.4019L380 81Z" fill="black"/>
<path d="M384 81L379.5 83.5981L379.5 78.4019L384 81Z" fill="black"/>
<path d="M366.124 122V121.75H366.022L365.949 121.822L366.124 122ZM379.443 122L378 120.557L376.557 122L378 123.443L379.443 122ZM357.176 131.178L366.3 122.178L365.949 121.822L356.824 130.822L357.176 131.178ZM366.124 122.25H378V121.75H366.124V122.25Z" fill="black"/>
<path d="M367.551 176.243L367.382 176.427L367.453 176.493H367.551V176.243ZM378.084 176.243L378.258 176.063L378.185 175.993H378.084V176.243ZM381.03 179.441L381.996 182.037L384.004 179.963L381.377 179.082L381.03 179.441ZM357.831 167.684L367.382 176.427L367.719 176.058L358.169 167.316L357.831 167.684ZM367.551 176.493H378.084V175.993H367.551V176.493ZM377.91 176.422L381.209 179.615L381.557 179.256L378.258 176.063L377.91 176.422Z" fill="black"/>
<defs>
<linearGradient id="paint0_linear_32_122" x1="191.5" y1="26" x2="191.5" y2="266" gradientUnits="userSpaceOnUse">
<stop stop-color="#E0E0E0" stop-opacity="0.75"/>
<stop offset="1" stop-color="white" stop-opacity="0.25"/>
<stop offset="1" stop-color="#F7F7F7" stop-opacity="0.25"/>
</linearGradient>
<linearGradient id="paint1_linear_32_122" x1="191.5" y1="26" x2="191.5" y2="266" gradientUnits="userSpaceOnUse">
<stop/>
<stop offset="1" stop-opacity="0"/>
</linearGradient>
</defs>
</svg>
