<svg width="45" height="46" viewBox="0 0 45 46" fill="none" xmlns="http://www.w3.org/2000/svg">
<path d="M32.2222 10.864C32.9589 10.864 33.6655 11.1567 34.1864 11.6776C34.7073 12.1985 35 12.9051 35 13.6418V33.0862C35 33.8229 34.7073 34.5295 34.1864 35.0504C33.6655 35.5714 32.9589 35.864 32.2222 35.864H12.7778C12.0411 35.864 11.3345 35.5714 10.8136 35.0504C10.2927 34.5295 10 33.8229 10 33.0862V13.6418C10 12.9051 10.2927 12.1985 10.8136 11.6776C11.3345 11.1567 12.0411 10.864 12.7778 10.864H32.2222ZM31.5278 32.3918V25.0307C31.5278 23.8298 31.0507 22.6782 30.2016 21.8291C29.3525 20.9799 28.2008 20.5029 27 20.5029C25.8194 20.5029 24.4444 21.2251 23.7778 22.3085V20.7668H19.9028V32.3918H23.7778V25.5446C23.7778 24.4751 24.6389 23.6001 25.7083 23.6001C26.224 23.6001 26.7186 23.805 27.0833 24.1696C27.4479 24.5343 27.6528 25.0289 27.6528 25.5446V32.3918H31.5278ZM15.3889 18.5862C16.0077 18.5862 16.6012 18.3404 17.0388 17.9028C17.4764 17.4652 17.7222 16.8717 17.7222 16.2529C17.7222 14.9612 16.6806 13.9057 15.3889 13.9057C14.7664 13.9057 14.1693 14.153 13.7292 14.5932C13.289 15.0334 13.0417 15.6304 13.0417 16.2529C13.0417 17.5446 14.0972 18.5862 15.3889 18.5862ZM17.3194 32.3918V20.7668H13.4722V32.3918H17.3194Z" fill="black"/>
</svg>
