<svg width="24" height="24" viewBox="0 0 24 24" fill="none" xmlns="http://www.w3.org/2000/svg">
<g clip-path="url(#clip0_223_211)">
<path fill-rule="evenodd" clip-rule="evenodd" d="M12 0C14.3869 0 16.6761 0.948211 18.364 2.63604C20.0518 4.32387 21 6.61305 21 9C21 12.074 19.324 14.59 17.558 16.395C16.6755 17.2869 15.7128 18.0956 14.682 18.811L14.256 19.101L14.056 19.234L13.679 19.474L13.343 19.679L12.927 19.921C12.6445 20.0818 12.325 20.1663 12 20.1663C11.675 20.1663 11.3555 20.0818 11.073 19.921L10.657 19.679L10.137 19.359L9.945 19.234L9.535 18.961C8.42298 18.2083 7.38707 17.3489 6.442 16.395C4.676 14.589 3 12.074 3 9C3 6.61305 3.94821 4.32387 5.63604 2.63604C7.32387 0.948211 9.61305 0 12 0ZM12 2C10.1435 2 8.36301 2.7375 7.05025 4.05025C5.7375 5.36301 5 7.14348 5 9C5 11.322 6.272 13.36 7.871 14.996C8.55862 15.6919 9.30174 16.3307 10.093 16.906L10.551 17.232C10.699 17.335 10.841 17.431 10.978 17.52L11.368 17.77L11.711 17.979L12 18.148L12.455 17.879L12.822 17.649C13.017 17.525 13.227 17.386 13.449 17.232L13.907 16.906C14.6983 16.3307 15.4414 15.6919 16.129 14.996C17.728 13.361 19 11.322 19 9C19 7.14348 18.2625 5.36301 16.9497 4.05025C15.637 2.7375 13.8565 2 12 2ZM12 5C13.0609 5 14.0783 5.42143 14.8284 6.17157C15.5786 6.92172 16 7.93913 16 9C16 10.0609 15.5786 11.0783 14.8284 11.8284C14.0783 12.5786 13.0609 13 12 13C10.9391 13 9.92172 12.5786 9.17157 11.8284C8.42143 11.0783 8 10.0609 8 9C8 7.93913 8.42143 6.92172 9.17157 6.17157C9.92172 5.42143 10.9391 5 12 5ZM12 7C11.4696 7 10.9609 7.21071 10.5858 7.58579C10.2107 7.96086 10 8.46957 10 9C10 9.53043 10.2107 10.0391 10.5858 10.4142C10.9609 10.7893 11.4696 11 12 11C12.5304 11 13.0391 10.7893 13.4142 10.4142C13.7893 10.0391 14 9.53043 14 9C14 8.46957 13.7893 7.96086 13.4142 7.58579C13.0391 7.21071 12.5304 7 12 7Z" fill="black"/>
</g>
<defs>
<clipPath id="clip0_223_211">
<rect width="24" height="24" fill="white"/>
</clipPath>
</defs>
</svg>
