<svg width="24" height="24" viewBox="0 0 24 24" fill="none" xmlns="http://www.w3.org/2000/svg">
<path d="M12.7847 17.5809C12.8896 17.6854 12.9728 17.8096 13.0296 17.9463C13.0864 18.0831 13.1156 18.2297 13.1156 18.3777C13.1156 18.5258 13.0864 18.6724 13.0296 18.8092C12.9728 18.9459 12.8896 19.0701 12.7847 19.1746L12.2279 19.7315C11.1726 20.7867 9.74144 21.3795 8.24912 21.3795C6.7568 21.3795 5.3256 20.7867 4.27037 19.7315C3.21514 18.6762 2.62231 17.2451 2.62231 15.7527C2.62231 14.2604 3.21514 12.8292 4.27037 11.774L6.53162 9.51367C7.54551 8.49727 8.90966 7.907 10.3446 7.86378C11.7796 7.82055 13.1768 8.32764 14.2501 9.28117C14.3609 9.37966 14.4512 9.49901 14.5159 9.63241C14.5805 9.7658 14.6183 9.91063 14.627 10.0586C14.6357 10.2066 14.6152 10.3549 14.5666 10.4949C14.518 10.635 14.4423 10.7641 14.3438 10.8749C14.2453 10.9857 14.126 11.076 13.9926 11.1407C13.8592 11.2054 13.7143 11.2432 13.5663 11.2519C13.4184 11.2606 13.2701 11.24 13.13 11.1915C12.99 11.1429 12.8609 11.0672 12.7501 10.9687C12.1065 10.3971 11.2688 10.093 10.4085 10.1186C9.54811 10.1443 8.73005 10.4976 8.12162 11.1065L5.86224 13.364C5.2292 13.997 4.87357 14.8556 4.87357 15.7509C4.87357 16.6461 5.2292 17.5047 5.86224 18.1377C6.49528 18.7708 7.35386 19.1264 8.24912 19.1264C9.14437 19.1264 10.003 18.7708 10.636 18.1377L11.1929 17.5809C11.2973 17.4763 11.4214 17.3933 11.558 17.3367C11.6946 17.28 11.841 17.2509 11.9888 17.2509C12.1366 17.2509 12.283 17.28 12.4196 17.3367C12.5562 17.3933 12.6803 17.4763 12.7847 17.5809ZM19.7297 4.26836C18.6737 3.21475 17.2428 2.62305 15.751 2.62305C14.2592 2.62305 12.8283 3.21475 11.7722 4.26836L11.2154 4.82523C11.004 5.03658 10.8853 5.32322 10.8853 5.62211C10.8853 5.92099 11.004 6.20764 11.2154 6.41898C11.4267 6.63033 11.7134 6.74906 12.0122 6.74906C12.3111 6.74906 12.5978 6.63033 12.8091 6.41898L13.366 5.86211C13.999 5.22907 14.8576 4.87343 15.7529 4.87343C16.6481 4.87343 17.5067 5.22907 18.1397 5.86211C18.7728 6.49514 19.1284 7.35373 19.1284 8.24898C19.1284 9.14423 18.7728 10.0028 18.1397 10.6359L15.8794 12.8971C15.2705 13.5057 14.4519 13.8586 13.5914 13.8835C12.7308 13.9084 11.8932 13.6035 11.2501 13.0312C11.1393 12.9327 11.0101 12.857 10.8701 12.8084C10.73 12.7598 10.5818 12.7393 10.4338 12.748C10.2858 12.7567 10.1409 12.7944 10.0075 12.8591C9.87415 12.9238 9.7548 13.0141 9.6563 13.1249C9.55781 13.2357 9.48211 13.3648 9.43352 13.5049C9.38493 13.645 9.3644 13.7932 9.3731 13.9412C9.38181 14.0892 9.41958 14.234 9.48425 14.3674C9.54893 14.5008 9.63925 14.6202 9.75005 14.7187C10.8225 15.672 12.2188 16.1794 13.6531 16.137C15.0874 16.0947 16.4513 15.5058 17.4657 14.4909L19.7269 12.2305C20.7818 11.1747 21.3745 9.74344 21.375 8.25097C21.3756 6.7585 20.7838 5.32681 19.7297 4.27023V4.26836Z" fill="black"/>
</svg>
