<svg width="45" height="46" viewBox="0 0 45 46" fill="none" xmlns="http://www.w3.org/2000/svg">
<path d="M15.7263 13.864C16.5918 13.864 17.3922 13.9317 18.1236 14.1322C18.8563 14.2663 19.4563 14.5344 19.9886 14.869C20.5222 15.2035 20.9218 15.6735 21.1872 16.2762C21.454 16.8789 21.5881 17.617 21.5881 18.4202C21.5881 19.3588 21.3877 20.1619 20.9218 20.7646C20.5222 21.3687 19.8559 21.9037 19.0568 22.3059C20.189 22.6418 21.0545 23.2445 21.5881 24.0477C22.1204 24.8522 22.4536 25.8571 22.4536 26.9962C22.4536 27.9347 22.2531 28.7379 21.9199 29.4083C21.5881 30.0787 21.0545 30.6814 20.4545 31.0837C19.8027 31.5149 19.0823 31.8318 18.324 32.0209C17.525 32.2227 16.7259 32.3568 15.9268 32.3568H7V13.864H15.7263ZM15.1927 21.3673C15.9254 21.3673 16.5254 21.1669 16.9913 20.8323C17.4572 20.4978 17.6577 19.8937 17.6577 19.157C17.6577 18.7547 17.59 18.3525 17.4572 18.0856C17.3245 17.8175 17.1241 17.6157 16.8586 17.4152C16.587 17.263 16.2952 17.1504 15.9918 17.0807C15.6586 17.013 15.3268 17.013 14.9259 17.013H11.0632V21.3687L15.1927 21.3673ZM15.3931 29.2742C15.7927 29.2742 16.1922 29.2065 16.5254 29.1402C16.8586 29.0724 17.1918 28.9397 17.4572 28.7379C17.7286 28.5418 17.9557 28.2908 18.1236 28.0011C18.2563 27.6666 18.3904 27.2643 18.3904 26.7957C18.3904 25.8571 18.1236 25.1867 17.5913 24.7181C17.0577 24.3158 16.325 24.1154 15.4595 24.1154H11.0632V29.2756L15.3931 29.2742ZM28.249 29.2065C28.7813 29.7429 29.5804 30.011 30.6463 30.011C31.379 30.011 32.0453 29.8106 32.5776 29.476C33.1113 29.0738 33.4444 28.6715 33.5772 28.2693H36.8412C36.3076 29.8769 35.5085 31.016 34.444 31.7528C33.3767 32.4232 32.1117 32.8254 30.5799 32.8254C29.5998 32.8285 28.628 32.6465 27.7154 32.2891C26.8942 31.9811 26.1618 31.4749 25.5836 30.8155C24.965 30.1987 24.5078 29.4391 24.2522 28.6038C23.919 27.7329 23.7849 26.7957 23.7849 25.723C23.7849 24.7181 23.919 23.7808 24.2522 22.9086C24.5729 22.0689 25.0474 21.2964 25.6513 20.6305C26.2499 20.0278 26.9826 19.4929 27.7817 19.157C28.6712 18.7995 29.6213 18.6174 30.5799 18.6206C31.7122 18.6206 32.7117 18.8224 33.5772 19.291C34.444 19.7597 35.109 20.296 35.6412 21.1005C36.1749 21.8373 36.5758 22.7082 36.8412 23.6468C36.974 24.584 37.0403 25.5226 36.974 26.5939H27.3158C27.3158 27.6666 27.7154 28.6715 28.249 29.2079M32.4449 22.1732C31.979 21.7046 31.2463 21.4364 30.3794 21.4364C29.8712 21.4288 29.3686 21.5435 28.914 21.7709C28.5145 21.9727 28.249 22.2409 27.9822 22.5091C27.737 22.7681 27.5748 23.0945 27.5163 23.4463C27.4486 23.7822 27.3822 24.049 27.3822 24.3172H33.3767C33.244 23.3122 32.9108 22.6432 32.4449 22.1732ZM26.5831 15.1371H34.0431V16.9466H26.5845L26.5831 15.1371Z" fill="black"/>
</svg>
