<svg width="20" height="20" viewBox="0 0 20 20" fill="none" xmlns="http://www.w3.org/2000/svg">
<path d="M1.63097 0.122078C0.737471 -0.324422 -0.251529 0.528078 0.0579715 1.47758L2.06497 7.63008C2.12174 7.80389 2.22507 7.95882 2.36374 8.078C2.50241 8.19719 2.6711 8.27607 2.85147 8.30608L10.7815 9.62758C11.199 9.69758 11.199 10.2976 10.7815 10.3676L2.85197 11.6891C2.6716 11.7191 2.50291 11.798 2.36424 11.9172C2.22557 12.0363 2.12224 12.1913 2.06547 12.3651L0.0579715 18.5211C-0.252028 19.4711 0.737471 20.3236 1.63097 19.8771L19.378 11.0061C20.2075 10.5911 20.2075 9.40758 19.378 8.99308L1.63097 0.122078Z" fill="#202124"/>
</svg>
