<svg width="54" height="56" viewBox="0 0 54 56" fill="none" xmlns="http://www.w3.org/2000/svg">
<g clip-path="url(#clip0_215_69)">
<path d="M26.8333 56C5.19183 56 0 50.5824 0 28C0 5.41756 5.19183 0 26.8333 0C48.4748 0 53.6667 5.41756 53.6667 28C53.6667 50.5824 48.4748 56 26.8333 56ZM19.237 13.8574L10.8208 33.8168C10.4382 34.7863 10.1103 36.0406 10.1103 37.1243C10.1103 42.0855 13.4439 45.5643 18.1985 45.5643C19.7567 45.5643 21.0505 45.1371 22.366 44.7029L22.3671 44.7022C23.7274 44.2531 25.111 43.7964 26.8333 43.7964C28.5758 43.7964 29.9263 44.2492 31.2604 44.6963L31.2608 44.6965C32.5627 45.1329 33.8488 45.5643 35.468 45.5643C40.2225 45.5643 43.5564 42.0855 43.5564 37.1243C43.5564 36.0406 43.2283 34.7863 42.8459 33.8168L34.4299 13.8574C33.0086 10.493 30.2764 8.66797 26.8333 8.66797C23.3903 8.66797 20.6579 10.4928 19.237 13.8574ZM18.5263 36.9532L26.8333 17.3362L35.0309 36.9532C32.6809 35.7558 29.7299 35.1855 26.8333 35.1855C23.8276 35.1855 20.9856 35.7558 18.5263 36.9532Z" fill="#5A46FF"/>
</g>
<defs>
<clipPath id="clip0_215_69">
<rect width="53.6667" height="56" fill="white"/>
</clipPath>
</defs>
</svg>
