<svg width="54" height="56" viewBox="0 0 54 56" fill="none" xmlns="http://www.w3.org/2000/svg">
<g clip-path="url(#clip0_215_145)">
<path d="M24.4959 0.994112L0.949626 25.5444C0.648702 25.8573 0.409933 26.2291 0.247013 26.6385C0.0840935 27.0479 0.000228882 27.4868 0.000228882 27.9301C0.000228882 28.3734 0.0840935 28.8123 0.247013 29.2217C0.409933 29.6311 0.648702 30.0029 0.949626 30.3158L24.4959 54.8659C25.7619 56.1856 27.8064 56.1856 29.0722 54.8659L38.945 44.5724C40.0787 43.3903 40.0787 41.4738 38.945 40.2919C37.8113 39.1098 35.9732 39.1098 34.8395 40.2919L27.3551 48.0951C27.04 48.4237 26.5618 48.4237 26.2468 48.0951L7.44329 28.4903C7.12821 28.1618 7.12821 27.6632 7.44329 27.3347L26.2468 7.72964C26.5618 7.4013 27.04 7.4013 27.3551 7.72964L34.8395 15.5331C35.9732 16.7152 37.8113 16.7152 38.945 15.5331C40.0787 14.351 40.0787 12.4347 38.945 11.2526L29.0733 0.960425C27.8022 -0.331075 25.7568 -0.320575 24.4959 0.994112Z" fill="url(#paint0_linear_215_145)"/>
<path d="M24.4959 0.994018L0.949626 25.5443C0.648702 25.8572 0.409933 26.229 0.247013 26.6384C0.0840935 27.0478 0.000228882 27.4867 0.000228882 27.93C0.000228882 28.3733 0.0840935 28.8122 0.247013 29.2216C0.409933 29.631 0.648702 30.0028 0.949626 30.3157L24.4959 54.8658C25.7619 56.1855 27.8064 56.1855 29.0722 54.8658L38.945 44.5723C40.0787 43.3902 40.0787 41.4737 38.945 40.2918C37.8113 39.1097 35.9732 39.1097 34.8395 40.2918L27.3551 48.095C27.04 48.4236 26.5618 48.4236 26.2468 48.095L7.44329 28.4902C7.12821 28.1617 7.12821 27.6631 7.44329 27.3346L26.2468 7.72955C27.0312 7.02386 28.3115 5.59455 30.191 5.25986C31.5881 5.01158 33.1155 5.55846 34.773 6.90049L29.0735 0.960112C27.8022 -0.331169 25.757 -0.320669 24.4959 0.994018Z" fill="url(#paint1_linear_215_145)"/>
<path d="M41.2242 38.0086C42.3579 39.1907 44.196 39.1907 45.3297 38.0086L52.6122 30.4158C52.9131 30.1029 53.1519 29.7311 53.3148 29.3217C53.4777 28.9123 53.5616 28.4734 53.5616 28.0301C53.5616 27.5868 53.4777 27.1479 53.3148 26.7385C53.1519 26.3291 52.9131 25.9573 52.6122 25.6444L45.2664 18.0122C44.1299 16.8316 42.2912 16.8334 41.1569 18.0162C40.0232 19.1983 40.0232 21.1145 41.1569 22.2967L46.1183 27.4697C46.4334 27.7982 46.4334 28.2968 46.1183 28.6253L41.2242 33.7281C40.0905 34.9102 40.0905 36.8267 41.2242 38.0086Z" fill="url(#paint2_linear_215_145)"/>
<path d="M26.9019 34.6814C30.4131 34.6814 33.2595 31.7137 33.2595 28.0529C33.2595 24.392 30.4131 21.4243 26.9019 21.4243C23.3907 21.4243 20.5443 24.392 20.5443 28.0529C20.5443 31.7137 23.3907 34.6814 26.9019 34.6814Z" fill="url(#paint3_linear_215_145)"/>
</g>
<defs>
<linearGradient id="paint0_linear_215_145" x1="2471.35" y1="-7.41505e-05" x2="4759.68" y2="1339.22" gradientUnits="userSpaceOnUse">
<stop stop-color="#4285EB"/>
<stop offset="1" stop-color="#2EC7FF"/>
</linearGradient>
<linearGradient id="paint1_linear_215_145" x1="2771.49" y1="-0.000194325" x2="1571.98" y2="5941.12" gradientUnits="userSpaceOnUse">
<stop stop-color="#29CDFF"/>
<stop offset="0.3786" stop-color="#148EFF"/>
<stop offset="1" stop-color="#0A60FF"/>
</linearGradient>
<linearGradient id="paint2_linear_215_145" x1="964.061" y1="-265.281" x2="-562.35" y2="2022.4" gradientUnits="userSpaceOnUse">
<stop stop-color="#FA816E"/>
<stop offset="0.41473" stop-color="#F74A5C"/>
<stop offset="1" stop-color="#F51D2C"/>
</linearGradient>
<linearGradient id="paint3_linear_215_145" x1="886.807" y1="-451.736" x2="368.537" y2="1535.05" gradientUnits="userSpaceOnUse">
<stop stop-color="#FA8E7D"/>
<stop offset="0.51264" stop-color="#F74A5C"/>
<stop offset="1" stop-color="#F51D2C"/>
</linearGradient>
<clipPath id="clip0_215_145">
<rect width="53.6667" height="56" fill="white"/>
</clipPath>
</defs>
</svg>
