<svg width="56" height="56" viewBox="0 0 55 60" fill="none" xmlns="http://www.w3.org/2000/svg">
<path fill="#4285F4" fill-rule="evenodd"
      d="M29.188 2.16a4.062 4.062 0 0 0-4.052 0L3.649 14.527a4.047 4.047 0 0 0-.97.78l9.006 5.162c.217-.235.47-.438.754-.604l13.1-7.574a3.243 3.243 0 0 1 1.623-.436c.57 0 1.13.15 1.623.436l13.1 7.574c.284.165.537.37.755.604l9.006-5.162a4.046 4.046 0 0 0-.971-.78L29.188 2.16Zm23.29 14.54-9.068 5.196c.062.251.094.512.094.777v14.428a3.244 3.244 0 0 1-.425 1.605 3.236 3.236 0 0 1-1.163 1.184l-13.163 7.815a3.241 3.241 0 0 1-.78.334v10.24a4.056 4.056 0 0 0 1.158-.461l21.584-12.754a4.043 4.043 0 0 0 1.456-1.477 4.05 4.05 0 0 0 .532-2.005V18.031c0-.46-.079-.91-.226-1.331ZM1.621 18.03c0-.46.078-.908.225-1.33l9.067 5.196a3.267 3.267 0 0 0-.094.777v15.108a3.243 3.243 0 0 0 1.687 2.845l13.033 7.135c.26.141.532.245.811.312V58.32a4.06 4.06 0 0 1-1.23-.432L3.732 46.233a4.043 4.043 0 0 1-1.542-1.485 4.044 4.044 0 0 1-.568-2.065V18.031ZM24.326.76a5.687 5.687 0 0 1 5.672 0l21.487 12.367a5.66 5.66 0 0 1 2.84 4.905v23.552a5.66 5.66 0 0 1-.746 2.805 5.66 5.66 0 0 1-2.038 2.067L29.957 59.21a5.686 5.686 0 0 1-2.794.79 5.687 5.687 0 0 1-2.82-.693L2.956 47.653a5.66 5.66 0 0 1-2.16-2.08A5.66 5.66 0 0 1 0 42.683V18.03a5.66 5.66 0 0 1 2.84-4.905L24.325.759ZM17.35 23.1l8.58-4.955a2.469 2.469 0 0 1 2.465 0l8.58 4.954a2.43 2.43 0 0 1 1.218 2.103v9.448A2.43 2.43 0 0 1 37 36.738l-8.63 5.114a2.468 2.468 0 0 1-1.214.344 2.468 2.468 0 0 1-1.225-.302l-8.53-4.662a2.43 2.43 0 0 1-.927-.89 2.43 2.43 0 0 1-.342-1.24v-9.901a2.43 2.43 0 0 1 1.219-2.103Z"
      clip-rule="evenodd"></path>
</svg>