<svg width="54" height="56" viewBox="0 0 54 56" fill="none" xmlns="http://www.w3.org/2000/svg">
<g clip-path="url(#clip0_215_451)">
<path d="M41.0885 0H12.5781C5.63142 0 0 5.87626 0 13.125V42.875C0 50.1237 5.63142 56 12.5781 56H41.0885C48.0352 56 53.6667 50.1237 53.6667 42.875V13.125C53.6667 5.87626 48.0352 0 41.0885 0Z" fill="#2396ED"/>
<path d="M29.5978 26.7144H33.9408V22.6142H29.5978V26.7144ZM24.4278 26.7144H28.7706V22.6142H24.4278V26.7144ZM19.3609 26.7144H23.7039V22.6142H19.3609V26.7144ZM14.294 26.7144H18.5339V22.6142H14.2942L14.294 26.7144ZM9.12396 26.7144H13.467V22.6142H9.12396V26.7144ZM14.2942 21.751H18.5337V17.6509H14.2942V21.751ZM19.3611 21.751H23.7039V17.6509H19.3609L19.3611 21.751ZM24.4278 21.751H28.7706V17.6509H24.4278V21.751ZM24.4278 16.7875H28.7706V12.6875H24.4278V16.7875ZM47.7969 24.8804C47.7969 24.8804 45.9355 23.046 42.1097 23.6935C41.6961 20.5643 38.4905 18.73 38.4905 18.73C38.4905 18.73 35.4919 22.5065 37.6633 26.7146C37.043 27.0384 36.0089 27.47 34.4578 27.47H6.02199C5.50482 29.5201 5.50482 43.1152 19.7745 43.1152C30.0114 43.1152 37.6633 38.152 41.2825 29.0883C46.6594 29.5199 47.7969 24.8804 47.7969 24.8804Z" fill="black"/>
</g>
<defs>
<clipPath id="clip0_215_451">
<rect width="53.6667" height="56" fill="white"/>
</clipPath>
</defs>
</svg>
