<svg width="54" height="56" viewBox="0 0 54 56" fill="none" xmlns="http://www.w3.org/2000/svg">
<g clip-path="url(#clip0_215_625)">
<path d="M41.0885 0H12.5781C5.63142 0 0 5.87626 0 13.125V42.875C0 50.1237 5.63142 56 12.5781 56H41.0885C48.0352 56 53.6667 50.1237 53.6667 42.875V13.125C53.6667 5.87626 48.0352 0 41.0885 0Z" fill="#242938"/>
<path d="M47.7969 40.0174C47.1866 40.2586 46.5128 40.2581 45.9028 40.0161C45.2929 39.7741 44.789 39.3072 44.4865 38.7038C42.5866 35.7361 40.4886 32.9022 38.4721 30.0074L37.5977 28.7912C35.1965 32.1481 32.7954 35.3712 30.604 38.7161C30.3186 39.2928 29.842 39.7415 29.263 39.9787C28.6841 40.2159 28.0422 40.2254 27.457 40.0054L36.4671 27.3925L28.0863 15.9956C28.6896 15.7683 29.3496 15.7652 29.9548 15.9868C30.5601 16.2083 31.0735 16.6411 31.4084 17.2119C33.3549 20.1799 35.5114 23.0138 37.656 26.0181C39.8125 23.0381 41.9455 20.1919 43.9387 17.2484C44.2257 16.6811 44.7026 16.2437 45.2786 16.0194C45.8546 15.7951 46.4895 15.7997 47.0625 16.0322L43.8104 20.5325C42.3535 22.5393 40.9198 24.5584 39.4045 26.5166C39.2824 26.6307 39.1846 26.7703 39.1177 26.9265C39.0508 27.0826 39.0162 27.2517 39.0162 27.4228C39.0162 27.5938 39.0508 27.763 39.1177 27.9191C39.1846 28.0753 39.2824 28.2149 39.4045 28.329C42.1904 32.1847 44.9527 36.0524 47.7969 40.0174ZM5.86978 27.2343C6.11464 26.0181 6.26599 24.6922 6.60413 23.4517C8.62062 15.9716 16.8381 12.8577 22.4914 17.4919C25.8017 20.2044 26.6293 24.0478 26.4663 28.3778H7.81646C7.51332 36.1134 12.8634 40.7839 19.7055 38.4C20.8154 37.9857 21.8089 37.2895 22.5965 36.3743C23.384 35.459 23.9408 34.3536 24.2164 33.1577C24.5779 31.9414 25.1606 31.7347 26.2679 32.0873C26.0856 33.568 25.5839 34.9864 24.8006 36.2356C24.0173 37.4849 22.9727 38.5326 21.7455 39.2999C19.7178 40.4571 17.3914 40.9155 15.099 40.6097C12.8065 40.3039 10.6655 39.2494 8.98203 37.5972C7.31654 35.6432 6.30951 33.1741 6.11464 30.567C6.11464 30.1536 5.96307 29.7399 5.88152 29.3507C5.87381 28.6453 5.86989 27.9398 5.86978 27.2343ZM7.83973 26.7113H24.7062C24.6011 21.1043 21.2092 17.127 16.6868 17.0907C11.6513 17.0176 8.04957 20.9096 7.82799 26.687L7.83973 26.7113Z" fill="white"/>
</g>
<defs>
<clipPath id="clip0_215_625">
<rect width="53.6667" height="56" fill="white"/>
</clipPath>
</defs>
</svg>
