<svg width="54" height="56" viewBox="0 0 54 56" fill="none" xmlns="http://www.w3.org/2000/svg">
<g clip-path="url(#clip0_215_335)">
<path d="M41.0885 0H12.5781C5.63142 0 0 5.87626 0 13.125V42.875C0 50.1237 5.63142 56 12.5781 56H41.0885C48.0352 56 53.6667 50.1237 53.6667 42.875V13.125C53.6667 5.87626 48.0352 0 41.0885 0Z" fill="#242938"/>
<path d="M21.3061 39.9479C21.3061 39.9479 19.6961 40.9704 22.4266 41.2628C25.7238 41.7012 27.4671 41.6279 31.107 40.8979C31.107 40.8979 32.0868 41.5562 33.4172 42.0669C25.2257 45.7192 14.8651 41.8478 21.3061 39.9479ZM20.256 35.1999C20.256 35.1999 18.5056 36.5881 21.2359 36.8797C24.8056 37.2448 27.6069 37.3181 32.4373 36.2963C32.4373 36.2963 33.0681 37.0272 34.1176 37.3923C24.2473 40.4602 13.1855 37.6839 20.256 35.2006V35.1999ZM39.5781 43.5278C39.5781 43.5278 40.768 44.5502 38.2478 45.3543C33.557 46.8151 18.5758 47.2542 14.3754 45.3543C12.906 44.6961 15.7059 43.7461 16.6155 43.601C17.5258 43.3819 18.0155 43.3819 18.0155 43.3819C16.4055 42.2128 7.30414 45.7925 13.3949 46.8226C30.1265 49.6722 43.9184 45.5809 39.5775 43.5352L39.5781 43.5278ZM22.0761 30.2319C22.0761 30.2319 14.445 32.1318 19.345 32.7884C21.4453 33.08 25.5755 33.0076 29.4261 32.7152C32.5765 32.4233 35.7341 31.8386 35.7341 31.8386C35.7341 31.8386 34.6136 32.3501 33.8438 32.8611C26.0665 34.9814 11.1549 34.0316 15.4256 31.8399C19.067 30.0134 22.0761 30.2319 22.0761 30.2319ZM35.7267 38.1946C43.5686 33.9574 39.9272 29.8668 37.407 30.3785C36.7762 30.5244 36.4967 30.6703 36.4967 30.6703C36.4967 30.6703 36.7066 30.2319 37.1969 30.0869C42.1671 28.2603 46.0882 35.5657 35.5871 38.4147C35.5871 38.4147 35.6573 38.3414 35.7267 38.1955V38.1946ZM22.8459 49.7359C30.4068 50.2475 41.9579 49.4441 42.2382 45.7177C42.2382 45.7177 41.6791 47.1785 36.0078 48.2744C29.5674 49.516 21.5858 49.3701 16.8958 48.566C16.8958 48.566 17.8756 49.4425 22.8465 49.735L22.8459 49.7359Z" fill="white"/>
<path d="M30.96 6.125C30.96 6.125 35.3003 10.7273 26.8298 17.6663C20.0389 23.2908 25.2888 26.5055 26.8298 30.1571C22.8394 26.4322 19.9701 23.1442 21.9291 20.076C24.8064 15.5494 32.7161 13.3577 30.96 6.125ZM28.7201 27.0904C30.75 29.5011 28.161 31.6927 28.161 31.6927C28.161 31.6927 33.3413 28.9177 30.9615 25.4831C28.7909 22.1957 27.1109 20.5883 36.212 15.1088C36.212 15.1088 21.8604 18.8337 28.7215 27.0889L28.7201 27.0904Z" fill="#F58219"/>
</g>
<defs>
<clipPath id="clip0_215_335">
<rect width="53.6667" height="56" fill="white"/>
</clipPath>
</defs>
</svg>
