<svg width="54" height="56" viewBox="0 0 54 56" fill="none" xmlns="http://www.w3.org/2000/svg">
<g clip-path="url(#clip0_215_84)">
<path d="M45.2343 36.8503C45.4607 36.7145 45.6488 36.5189 45.7799 36.2833C45.9112 36.0472 45.9806 35.7792 45.9812 35.5063L46.008 26.5043C46.0085 26.2313 46.0779 25.9633 46.2092 25.7273C46.341 25.4913 46.5299 25.2958 46.7571 25.1603L51.4306 22.3533C51.6573 22.218 51.914 22.1472 52.1752 22.1479C52.4367 22.1486 52.6935 22.221 52.9198 22.3579C53.1461 22.4938 53.3342 22.6894 53.4654 22.9249C53.596 23.1612 53.6646 23.4292 53.6644 23.7019V40.0679C53.6642 40.3416 53.5949 40.6104 53.4634 40.8472C53.3318 41.084 53.1428 41.2804 52.9153 41.4166L35.2657 51.9959C35.0404 52.1306 34.7852 52.2015 34.5256 52.2015C34.2659 52.2015 34.0107 52.1306 33.7854 51.9959L19.9349 43.7313C19.7067 43.5954 19.5169 43.399 19.3849 43.1619C19.2529 42.9245 19.1834 42.6548 19.1836 42.3803V34.1273C19.1836 34.1179 19.1925 34.1133 19.2015 34.1179C19.2104 34.1226 19.2194 34.1179 19.2194 34.1063V34.0969C19.2194 34.0899 19.2239 34.0853 19.2283 34.0806L30.637 27.2439C30.6459 27.2369 30.6414 27.2206 30.6303 27.2206L30.6253 27.2194L30.6213 27.2159L30.6192 27.2115L30.6191 27.2066L30.6414 19.1169C30.6425 18.8429 30.5742 18.5735 30.4434 18.3359C30.3127 18.0982 30.1241 17.9008 29.8968 17.7636C29.6701 17.627 29.4129 17.5551 29.1511 17.5551C28.8893 17.5551 28.6321 17.627 28.4053 17.7636L19.9282 22.8643C19.702 23 19.4457 23.0714 19.1847 23.0714C18.9238 23.0714 18.6674 23 18.4412 22.8643L9.93504 17.7543C9.7085 17.6186 9.45179 17.5474 9.19059 17.5478C8.92939 17.5482 8.67287 17.6201 8.44669 17.7564C8.22051 17.8927 8.0326 18.0886 7.90176 18.3245C7.77093 18.5604 7.70176 18.8281 7.70117 19.1006V33.7236C7.70126 33.9962 7.63273 34.264 7.50244 34.5003C7.37216 34.7366 7.18468 34.933 6.95878 35.0699C6.73321 35.2066 6.47721 35.279 6.21639 35.2799C5.95524 35.2807 5.69847 35.2099 5.47177 35.0746L0.751337 32.2583C0.523114 32.1224 0.33335 31.926 0.201253 31.6889C0.068897 31.4508 -0.000547855 31.1802 3.25478e-06 30.9049L0.0424894 5.34794C0.0433002 5.07573 0.11252 4.8085 0.243238 4.57292C0.373957 4.33735 0.561602 4.14167 0.787445 4.00542C1.01329 3.86917 1.26943 3.79712 1.5303 3.79645C1.79117 3.79578 2.04765 3.86652 2.27413 4.00161L18.4412 13.6919C18.6674 13.8277 18.9238 13.8991 19.1847 13.8991C19.4457 13.8991 19.702 13.8277 19.9282 13.6919L36.0908 4.00161C36.3175 3.86621 36.5743 3.7954 36.8355 3.79627C37.097 3.79682 37.3539 3.86925 37.5801 4.00627C37.8067 4.14283 37.9948 4.33917 38.1257 4.57561C38.2554 4.81216 38.3232 5.0801 38.3225 5.35261V30.9166C38.3225 31.1896 38.2554 31.4579 38.1235 31.6959C37.992 31.9327 37.803 32.129 37.5756 32.2653L29.1119 37.3519C28.8842 37.4888 28.6953 37.686 28.5641 37.9236C28.4332 38.1606 28.3645 38.4294 28.3651 38.7029C28.3653 38.9767 28.4347 39.2455 28.5663 39.4823C28.699 39.7197 28.8895 39.9161 29.1186 40.0516L33.7876 42.8259C34.0127 42.9589 34.2669 43.0289 34.5256 43.0289C34.7862 43.0286 35.0421 42.957 35.268 42.8213L45.2343 36.8503ZM46.2137 13.9183C46.2135 14.1928 46.2829 14.4625 46.415 14.6999C46.5482 14.9376 46.7396 15.1341 46.9695 15.2693C47.1986 15.4043 47.4579 15.4738 47.721 15.4705C47.9842 15.4672 48.2418 15.3914 48.4677 15.2506L52.9422 12.4506C53.1628 12.3125 53.3454 12.1172 53.4721 11.8836C53.5995 11.6496 53.6665 11.3851 53.6667 11.1159V5.41327C53.6661 5.13854 53.5959 4.86885 53.4632 4.63161C53.3301 4.39434 53.1391 4.1981 52.9098 4.06284C52.6804 3.92759 52.4207 3.85816 52.1573 3.86161C51.8942 3.86469 51.6365 3.94036 51.4104 4.08094L46.9382 6.88094C46.7168 7.01869 46.5334 7.21406 46.406 7.44794C46.2795 7.68223 46.2133 7.94669 46.2137 8.21561V13.9183Z" fill="black"/>
</g>
<defs>
<clipPath id="clip0_215_84">
<rect width="53.6667" height="56" fill="white"/>
</clipPath>
</defs>
</svg>
