<svg width="54" height="56" viewBox="0 0 54 56" fill="none" xmlns="http://www.w3.org/2000/svg">
<path fill-rule="evenodd" clip-rule="evenodd" d="M14.7332 12.0137C14.2889 12.0122 13.8464 12.0711 13.4167 12.1887V12.2499H13.4804C13.7882 12.7347 14.1313 13.194 14.5068 13.6237C14.765 14.1592 14.9898 14.6929 15.2464 15.2284L15.3101 15.1602C15.5483 14.9629 15.7348 14.7058 15.8521 14.4129C15.9694 14.1201 16.0137 13.801 15.9809 13.4854C15.8405 13.2595 15.7117 13.0258 15.5952 12.7854C15.4023 12.4512 14.9847 12.2832 14.7281 12.0154" fill="#5D87A1"/>
<path fill-rule="evenodd" clip-rule="evenodd" d="M46.5894 41.2178C44.4739 41.0627 42.3511 41.3825 40.364 42.1558C39.8827 42.357 39.1146 42.357 39.0475 42.9923C39.3058 43.26 39.336 43.6923 39.5624 44.065C40.0016 44.841 40.5662 45.532 41.2311 46.1073C41.9019 46.6428 42.5728 47.1765 43.2855 47.6455C44.535 48.4523 45.9487 48.9195 47.1663 49.7228C47.874 50.1918 48.5784 50.7938 49.2861 51.2978C49.6383 51.5655 49.8614 51.9978 50.3108 52.1728V52.0713C50.1788 51.6994 50.0155 51.3404 49.8228 50.9985C49.5025 50.666 49.1805 50.3633 48.8585 50.029C47.9177 48.731 46.7923 47.5908 45.5211 46.648C44.493 45.9095 42.2457 44.898 41.8315 43.673L41.7661 43.6048C42.5183 43.4935 43.2597 43.3132 43.9815 43.0658C45.0716 42.7648 46.0661 42.833 47.1881 42.5408C47.703 42.406 48.6337 42.0718 48.6337 42.0718V41.5468C48.0602 40.9518 47.6493 40.1555 47.0455 39.5938C45.403 38.0976 43.6525 36.7356 41.8097 35.5198C40.8252 34.8565 39.5557 34.4295 38.5075 33.8643C38.1285 33.6648 37.5013 33.5668 37.2715 33.2343C36.7502 32.4362 36.3138 31.5812 35.9701 30.6845C35.0318 28.7995 34.1641 26.8771 33.3689 24.9218C32.9004 23.6317 32.36 22.3713 31.7505 21.147C28.8095 15.9293 24.5643 11.6442 19.4693 8.75001C18.1837 8.10068 16.8168 7.64352 15.409 7.39201C14.6141 7.35701 13.8225 7.29226 13.0293 7.26076C12.5172 6.9107 12.0301 6.52234 11.5719 6.09876C9.75727 4.90001 5.09498 2.32401 3.76002 5.73476C2.90471 7.88901 5.03125 10.0065 5.76078 11.1003C6.37593 11.8715 6.91793 12.7031 7.37917 13.5835C7.60222 14.147 7.66595 14.7438 7.88229 15.3335C8.34783 16.8474 8.90059 18.3306 9.53757 19.775C9.87826 20.4889 10.2707 21.1745 10.7115 21.826C10.9681 22.1918 11.4109 22.351 11.5065 22.9548C11.1548 23.7436 10.9087 24.5792 10.7753 25.438C10.2209 27.2648 10.0169 29.1877 10.1749 31.0968C10.3328 33.006 10.8497 34.8639 11.696 36.5645C12.1991 37.3923 13.41 39.214 15.0283 38.5175C16.4555 37.9225 16.1386 36.0343 16.5511 34.3805C16.6451 33.9798 16.583 33.7173 16.7725 33.453V33.775C16.7725 33.775 17.5825 35.6318 17.985 36.575C19.0796 38.3058 20.4394 39.837 22.01 41.1075C22.6313 41.6735 23.1318 42.3692 23.4792 43.1498V43.75H24.1953C24.1804 43.4794 24.1085 43.2155 23.9847 42.9771C23.8609 42.7388 23.6883 42.5318 23.4792 42.371C22.8919 41.7403 22.3541 41.0614 21.8708 40.341C20.5581 38.3901 19.4004 36.3305 18.4093 34.1828C17.9062 33.1328 17.4819 31.9813 17.0794 30.933C16.8949 30.5288 16.8949 29.918 16.5847 29.708C16.0118 30.4153 15.5147 31.1858 15.1021 32.0058C14.6013 33.6631 14.3099 35.3815 14.2351 37.1175C14.1127 37.1525 14.173 37.1175 14.1127 37.184C13.1249 36.9128 12.7844 35.798 12.4121 34.853C11.4503 31.9385 11.3533 28.789 12.1337 25.816C12.3484 25.1073 13.2791 22.8743 12.9068 22.197C12.7207 21.5513 12.1018 21.182 11.7631 20.6728C11.3306 19.9877 10.9584 19.2631 10.6512 18.508C9.91492 16.625 9.54261 14.525 8.74096 12.628C8.2972 11.7157 7.78051 10.844 7.19637 10.0223C6.55021 9.2014 5.98024 8.31835 5.49413 7.38501C5.33984 7.01226 5.12349 6.40326 5.37002 5.99726C5.38666 5.88448 5.43806 5.78043 5.51643 5.70086C5.59481 5.62129 5.69589 5.57052 5.80439 5.55626C6.20353 5.18526 7.34898 5.65776 7.7498 5.86076C8.82709 6.3033 9.85321 6.87095 10.8088 7.55301C11.2415 7.89251 12.2612 8.75176 12.2612 8.75176H12.563C13.5894 8.98451 14.7432 8.81651 15.7092 9.11926C17.3357 9.68502 18.8879 10.4611 20.3296 11.4293C24.5788 14.2558 28.0332 18.2082 30.3401 22.883C30.7258 23.6513 30.8885 24.3565 31.2407 25.158C31.9115 26.803 32.7501 28.483 33.4209 30.0825C34.0127 31.665 34.7781 33.1707 35.7018 34.5695C36.1814 35.2695 38.1084 35.6405 38.9754 36.008C39.7284 36.2798 40.4673 36.5923 41.1892 36.9443C42.2809 37.6443 43.3694 38.451 44.3974 39.2193C44.9089 39.6218 46.5139 40.4583 46.6112 41.1285" fill="#00758F"/>
</svg>
