<svg width="54" height="56" viewBox="0 0 54 56" fill="none" xmlns="http://www.w3.org/2000/svg">
<g clip-path="url(#clip0_215_394)">
<path d="M41.0885 0H12.5781C5.63142 0 0 5.87626 0 13.125V42.875C0 50.1237 5.63142 56 12.5781 56H41.0885C48.0352 56 53.6667 50.1237 53.6667 42.875V13.125C53.6667 5.87626 48.0352 0 41.0885 0Z" fill="#242938"/>
<path d="M30.7594 3.9375C30.4332 3.9375 30.1303 4.01231 29.8506 4.11228C30.4449 4.53644 30.7711 5.09797 30.9342 5.73431C30.946 5.82159 30.9692 5.88394 30.9808 5.97122C30.9925 6.04625 31.0043 6.12106 31.0043 6.19587C31.0508 7.294 30.7361 7.43116 30.5148 8.07997C30.1768 8.91603 30.2701 9.81422 30.6779 10.5381C30.7129 10.6253 30.7594 10.7251 30.8177 10.8126C30.3749 7.65581 32.8335 7.18156 33.288 6.19587C33.3228 5.33487 32.6587 4.76087 32.1344 4.36166C31.6334 4.03725 31.1789 3.9375 30.7594 3.9375ZM34.4649 4.64866C34.4182 4.93566 34.4532 4.86084 34.4416 5.01047C34.4299 5.11044 34.4299 5.23513 34.4182 5.33488C34.3964 5.4363 34.3692 5.53636 34.3366 5.63456C34.3133 5.73431 34.2783 5.83406 34.2435 5.93381C34.1968 6.03378 34.162 6.12106 34.1152 6.22081C34.0804 6.27069 34.057 6.32056 34.0222 6.37066L33.9521 6.48287C33.8939 6.57037 33.8356 6.65766 33.7773 6.73225C33.7075 6.80728 33.6492 6.89456 33.5677 6.95691V6.96959C33.4977 7.03194 33.4278 7.10675 33.3463 7.16909C33.1017 7.36881 32.822 7.51844 32.5656 7.70569C32.4841 7.76803 32.4025 7.81791 32.3325 7.89272C32.251 7.95528 32.1811 8.01741 32.1111 8.09244C32.0296 8.16725 31.9713 8.24206 31.9015 8.32956C31.8432 8.40437 31.7732 8.49166 31.7267 8.57894C31.6684 8.66644 31.6101 8.75394 31.5636 8.841C31.5168 8.94097 31.482 9.02825 31.4353 9.128C31.4005 9.22797 31.3655 9.31525 31.3422 9.415C31.3072 9.52744 31.2839 9.62719 31.2606 9.72694C31.2489 9.77681 31.2489 9.83938 31.2372 9.88925C31.2256 9.93913 31.2256 9.989 31.2139 10.0389C31.2139 10.1386 31.2024 10.2511 31.2024 10.3508C31.2024 10.4256 31.2024 10.5007 31.2139 10.5755C31.2139 10.6752 31.2256 10.775 31.2489 10.8874C31.2606 10.9872 31.2839 11.0869 31.3072 11.1869C31.3422 11.2866 31.3655 11.3864 31.4005 11.4863C31.4237 11.5487 31.4587 11.611 31.482 11.6609L28.802 10.5505C28.3545 10.4141 27.9038 10.2893 27.4503 10.1762L26.7162 9.989C26.0152 9.83928 25.3074 9.72684 24.5955 9.65213C24.5722 9.65213 24.5607 9.63966 24.5372 9.63966C23.8443 9.56487 23.1482 9.52734 22.4515 9.52722C21.9388 9.52722 21.4262 9.55216 20.9252 9.58978C20.2145 9.63966 19.5037 9.73941 18.7928 9.86431C18.6179 9.88925 18.4433 9.92666 18.2685 9.96406C17.9073 10.0389 17.5578 10.1262 17.2197 10.2134L16.6956 10.3633C16.5205 10.4381 16.3574 10.5256 16.1946 10.6004L15.8099 10.7874C15.7866 10.7999 15.7633 10.7999 15.7516 10.8124C15.635 10.8749 15.5302 10.9248 15.4254 10.9872C15.3972 10.9973 15.3699 11.0098 15.3436 11.0246C15.2158 11.0869 15.0875 11.1617 14.9827 11.2243C14.9009 11.2615 14.8193 11.3116 14.7495 11.349C14.7145 11.3739 14.6678 11.3988 14.6447 11.4113C14.5399 11.4739 14.4351 11.536 14.3416 11.5986C14.2368 11.6609 14.1437 11.7232 14.0619 11.7856C13.9804 11.8482 13.8988 11.898 13.829 11.9604C13.8173 11.9728 13.8058 11.9728 13.794 11.9853C13.7242 12.0352 13.6427 12.0975 13.5726 12.1601L13.5494 12.185L13.3745 12.3347C13.3515 12.3471 13.328 12.3721 13.3047 12.3845C13.2465 12.4344 13.1882 12.497 13.1299 12.5468C13.1182 12.5718 13.0949 12.584 13.0834 12.5967C13.0133 12.6715 12.9435 12.7339 12.8737 12.8089C12.8618 12.8089 12.8618 12.8214 12.8502 12.8338C12.7802 12.8962 12.7104 12.971 12.6406 13.046C12.6289 13.0583 12.6289 13.0707 12.6171 13.0707C12.5588 13.1331 12.5008 13.1954 12.4425 13.2705C12.4192 13.2954 12.3842 13.3203 12.3607 13.3453C12.3027 13.4201 12.2329 13.4951 12.1628 13.5699C12.1511 13.5949 12.1278 13.6073 12.1161 13.6323C12.023 13.732 11.9413 13.832 11.8482 13.9318L11.8132 13.9692C11.6266 14.1813 11.4287 14.3935 11.2189 14.5806C11.0092 14.7803 10.7878 14.9673 10.5665 15.1296C10.3408 15.2991 10.1074 15.4573 9.86734 15.6037C9.62979 15.7432 9.38466 15.8681 9.1332 15.9779C8.88558 16.0907 8.6328 16.1907 8.37578 16.2776C7.88649 16.3898 7.38547 16.6018 6.95446 16.6392C6.86096 16.6392 6.75614 16.6642 6.66306 16.6768C6.55824 16.7018 6.46496 16.7267 6.37167 16.7517C6.27838 16.7888 6.18509 16.8265 6.09202 16.8639C5.99873 16.9013 5.90544 16.9514 5.81236 17.0013C5.7306 17.0636 5.63753 17.1135 5.55598 17.1758C5.47299 17.2399 5.3951 17.3108 5.32307 17.388C5.24132 17.4503 5.15977 17.5376 5.08996 17.6124C5.01994 17.6999 4.95013 17.7747 4.89185 17.862C4.83357 17.962 4.76377 18.0493 4.71702 18.149C4.65874 18.2365 4.60046 18.3363 4.55392 18.436C4.50738 18.5483 4.46063 18.6482 4.42583 18.7604C4.39082 18.8602 4.35581 18.9726 4.32102 19.0848C4.29754 19.1846 4.27427 19.2846 4.26274 19.3843C4.26274 19.3968 4.251 19.4093 4.251 19.4217C4.22773 19.5342 4.22773 19.6838 4.21599 19.7586C4.20425 19.8461 4.19272 19.9209 4.19272 20.0082C4.19272 20.0581 4.19272 20.1204 4.20446 20.1705C4.21599 20.2578 4.22752 20.3326 4.251 20.4074C4.27427 20.4824 4.29775 20.5573 4.33275 20.6321V20.6445C4.36755 20.7193 4.41409 20.7942 4.46063 20.8692C4.50738 20.944 4.55392 21.0188 4.6122 21.0936C4.67048 21.1562 4.7405 21.231 4.8103 21.2933C4.87849 21.3664 4.95256 21.4332 5.03168 21.4931C5.31133 21.7549 5.38135 21.8424 5.74234 22.0419C5.80083 22.0795 5.8589 22.1045 5.92892 22.1419C5.94066 22.1419 5.95219 22.1543 5.96393 22.1543C5.96393 22.1793 5.96393 22.1917 5.97546 22.2167C5.9872 22.3164 6.01047 22.4164 6.03374 22.5162C6.05701 22.6284 6.09202 22.7283 6.12702 22.8156C6.16203 22.8904 6.1853 22.9653 6.22031 23.0403C6.23184 23.0652 6.24337 23.0902 6.25511 23.1026C6.30186 23.2024 6.3484 23.2897 6.39494 23.3772L6.56977 23.6392C6.62805 23.714 6.69807 23.8013 6.76788 23.8761C6.8379 23.9512 6.90771 24.0135 6.98926 24.0883C6.98926 24.0883 7.00099 24.1008 7.01252 24.1008C7.08254 24.1631 7.15235 24.2257 7.22216 24.2756C7.30392 24.3379 7.38547 24.3878 7.47875 24.4377C7.56445 24.4907 7.65404 24.5367 7.74667 24.575C7.81648 24.6124 7.89802 24.6374 7.97978 24.6623C7.99131 24.6748 8.00284 24.6748 8.02632 24.6873C8.07286 24.6997 8.13114 24.7122 8.17789 24.7247C8.14288 25.3984 8.13114 26.0347 8.22443 26.2594C8.32924 26.509 8.84201 25.7477 9.35478 24.8743C9.28476 25.7353 9.23822 26.7459 9.35478 27.0454C9.48266 27.3573 10.182 26.3841 10.7878 25.3111C19.0492 23.2647 26.5881 29.3788 27.3805 38.0131C27.2289 36.6653 25.6793 35.9168 24.9684 36.104C24.619 37.0272 24.0247 38.2126 23.0691 38.9487C23.1509 38.1253 23.1159 37.2767 22.9528 36.4534C22.6964 37.6012 22.1954 38.6743 21.5078 39.5975C20.4009 39.685 19.294 39.111 18.7112 38.25C18.6647 38.2126 18.6532 38.1377 18.6182 38.0879C18.5831 38.0004 18.5481 37.9131 18.5249 37.8258C18.4909 37.742 18.4674 37.6539 18.4551 37.5638C18.4433 37.4765 18.4433 37.3892 18.4433 37.2892V37.1022C18.4551 37.0147 18.4783 36.9274 18.5016 36.8401C18.5247 36.7528 18.5481 36.6653 18.5831 36.5781C18.6297 36.4908 18.6647 36.4035 18.723 36.316C18.9211 35.7171 18.9211 35.2306 18.5599 34.9436C18.4901 34.8947 18.4159 34.853 18.3385 34.8189C18.2917 34.8062 18.2337 34.7812 18.1869 34.7688C18.1519 34.7563 18.1287 34.7438 18.0939 34.7314C18.0121 34.7064 17.9305 34.6815 17.849 34.669C17.7696 34.6444 17.6872 34.6318 17.6044 34.6316C17.5195 34.6171 17.4339 34.6088 17.348 34.6067C17.2897 34.6067 17.2314 34.6192 17.1731 34.6192C17.0801 34.6192 16.9985 34.6316 16.917 34.6566C16.8352 34.669 16.7537 34.6815 16.6721 34.7064C16.5906 34.7314 16.509 34.7565 16.4275 34.7939C16.3459 34.8313 16.2761 34.8687 16.1946 34.9062C16.1245 34.9436 16.0545 34.9934 15.973 35.0308C13.2582 36.9274 14.8778 41.3693 16.7304 42.6545C16.0313 42.7919 15.3206 42.954 15.1225 43.1163L15.0992 43.1412C15.6002 43.4656 16.1245 43.7402 16.6723 43.9771C17.2964 44.1939 17.9258 44.3936 18.5599 44.576V44.5885C19.5246 44.8004 20.5122 44.876 21.4962 44.8131C26.6581 44.4264 30.8877 40.2216 31.6568 34.6815C31.6801 34.7939 31.7034 34.8937 31.7267 35.0059C31.7617 35.2306 31.8082 35.4677 31.8317 35.7046V35.7173C31.855 35.8295 31.8665 35.9417 31.8782 36.0417V36.0916C31.89 36.2038 31.9015 36.3162 31.9015 36.416C31.9132 36.5531 31.9248 36.6905 31.9248 36.8277V37.0274C31.9248 37.0897 31.9365 37.1645 31.9365 37.2269C31.9365 37.3019 31.9248 37.3767 31.9248 37.4515V37.6263C31.9248 37.7136 31.9132 37.7884 31.9132 37.8759C31.9132 37.9258 31.9132 37.9757 31.9015 38.038C31.9015 38.1253 31.8898 38.2128 31.8898 38.3125C31.878 38.3499 31.878 38.3873 31.878 38.4248C31.8665 38.5247 31.8547 38.612 31.8432 38.7118C31.8432 38.7492 31.8432 38.7866 31.8315 38.8242C31.8197 38.9489 31.7965 39.0611 31.7849 39.186V39.2109C31.7617 39.3232 31.7382 39.4481 31.7149 39.5603V39.5977L31.6451 39.9346C31.6451 39.947 31.6334 39.972 31.6334 39.9844C31.6117 40.0982 31.5845 40.2107 31.5518 40.3215V40.3589C31.5168 40.4836 31.4818 40.5958 31.4585 40.7083C31.447 40.7207 31.447 40.7332 31.447 40.7332L31.342 41.1075C31.2954 41.2322 31.2604 41.3446 31.2139 41.4693C31.1673 41.594 31.1323 41.7189 31.0858 41.8311C31.0391 41.956 30.9925 42.0683 30.946 42.1929H30.9342C30.8875 42.3054 30.8409 42.4301 30.7827 42.5423C30.7732 42.5723 30.7615 42.6016 30.7477 42.6298C30.7361 42.6423 30.7361 42.6547 30.7244 42.6672C29.967 44.3017 28.8486 45.7365 27.4503 46.8595C27.357 46.9219 27.2637 46.9967 27.1706 47.0717C27.1474 47.0964 27.1124 47.1091 27.0891 47.1341C27.0073 47.1964 26.9258 47.2588 26.8327 47.3211L26.8675 47.3961H26.8793L27.3688 47.3211H27.3803C27.6832 47.2712 27.9863 47.2089 28.2893 47.1465C28.3759 47.1317 28.4616 47.1108 28.5456 47.0842C28.6037 47.0715 28.6505 47.0592 28.7087 47.0466C28.7903 47.0341 28.8718 47.0092 28.9534 46.9967C29.0232 46.9717 29.0932 46.9593 29.163 46.9343C30.3284 46.6349 31.4585 46.2232 32.5421 45.7365C30.6896 48.4442 28.2077 50.6277 25.3064 52.0625C26.6464 51.9627 27.9863 51.7256 29.2796 51.3264C33.9754 49.8415 37.9256 46.4601 40.2909 41.9059C39.8131 44.7882 38.7411 47.5333 37.1564 49.9288C38.2886 49.1287 39.3321 48.1997 40.2676 47.159C42.8776 44.2393 44.5905 40.5335 45.1731 36.5533C45.5707 38.5294 45.6846 40.5562 45.511 42.5672C53.9239 30.0027 46.2102 16.9763 42.9826 13.5452C42.9709 13.5203 42.9593 13.5076 42.9593 13.4827C42.9476 13.4953 42.9476 13.4953 42.9476 13.5076C42.9476 13.4951 42.9476 13.4951 42.9359 13.4827C42.9359 13.6325 42.9241 13.7823 42.9126 13.932C42.8803 14.2115 42.8415 14.4902 42.796 14.7678C42.7378 15.0423 42.6679 15.3169 42.5979 15.5914C42.5151 15.8614 42.4218 16.1278 42.3183 16.3898C42.2113 16.6482 42.0947 16.9022 41.9688 17.1511C41.8405 17.3882 41.7007 17.6376 41.5493 17.8622C41.3996 18.094 41.2402 18.3188 41.0716 18.536C40.8967 18.7607 40.7104 18.9604 40.524 19.1599C40.4075 19.2723 40.3024 19.3721 40.1861 19.4718C40.0928 19.5593 40.0112 19.6341 39.9179 19.7212C39.7083 19.8962 39.4985 20.0581 39.2656 20.2079C39.0442 20.3577 38.8111 20.5076 38.578 20.6323C38.3356 20.7539 38.0909 20.8704 37.844 20.9816C37.5958 21.0819 37.3431 21.1694 37.0866 21.2437C36.8291 21.3178 36.5686 21.3802 36.3059 21.4307C36.0378 21.4808 35.7699 21.5058 35.5135 21.5307C35.3271 21.5432 35.1406 21.5556 34.9542 21.5556C34.6863 21.5556 34.4182 21.5307 34.1618 21.5055C33.8939 21.4806 33.626 21.4432 33.3696 21.3808C33.1014 21.331 32.8453 21.2562 32.5889 21.1687H32.5771C32.8335 21.1437 33.0899 21.1188 33.3463 21.0689C33.6093 21.0197 33.8698 20.9572 34.127 20.8817C34.3834 20.8074 34.6361 20.7199 34.8842 20.6196C35.1406 20.5198 35.3852 20.3952 35.6183 20.2703C35.863 20.1456 36.0843 20.0084 36.3175 19.8586C36.5388 19.6965 36.7602 19.5342 36.9701 19.3596C37.1791 19.1855 37.3775 18.9979 37.5642 18.7981C37.7623 18.6108 37.9371 18.3988 38.1119 18.1867C38.2824 17.968 38.4456 17.7433 38.6012 17.5129C38.6245 17.4755 38.648 17.4254 38.6712 17.3882C38.7882 17.1912 38.9008 16.9914 39.0092 16.7891C39.1374 16.5414 39.254 16.2875 39.3586 16.028C39.464 15.7667 39.5573 15.5002 39.6383 15.2296C39.7198 14.9675 39.7781 14.693 39.8364 14.4185C39.8831 14.1315 39.9297 13.8569 39.953 13.5826C39.9762 13.2956 39.9995 13.0086 39.9995 12.7339C39.9995 12.5344 39.988 12.3349 39.9762 12.1352C39.953 11.8482 39.9179 11.5736 39.8832 11.2991C39.8372 11.0178 39.7788 10.7389 39.7083 10.4633C39.6268 10.2012 39.5452 9.92666 39.4519 9.66481C39.3586 9.40253 39.2423 9.14069 39.1257 8.89109C38.9974 8.64172 38.8694 8.39191 38.7295 8.155C38.5809 7.92131 38.4255 7.6924 38.2635 7.46856C38.0887 7.25637 37.9138 7.04441 37.7275 6.83222C37.6342 6.73247 37.5294 6.62003 37.4245 6.5205C36.9031 6.08693 36.3627 5.67888 35.8049 5.29769C35.7298 5.25105 35.6519 5.20941 35.5718 5.173C35.1873 4.91072 34.8261 4.77356 34.4649 4.64888V4.64866Z" fill="#E0234E"/>
</g>
<defs>
<clipPath id="clip0_215_394">
<rect width="53.6667" height="56" fill="white"/>
</clipPath>
</defs>
</svg>
