<svg width="54" height="56" viewBox="0 0 54 56" fill="none" xmlns="http://www.w3.org/2000/svg">
<g clip-path="url(#clip0_215_160)">
<path d="M41.0885 0H12.5781C5.63142 0 0 5.87626 0 13.125V42.875C0 50.1237 5.63142 56 12.5781 56H41.0885C48.0352 56 53.6667 50.1237 53.6667 42.875V13.125C53.6667 5.87626 48.0352 0 41.0885 0Z" fill="#009639"/>
<path d="M40.9498 46.5937C40.4634 46.5942 39.9818 46.4945 39.5325 46.3004C39.0831 46.1063 38.6749 45.8216 38.3312 45.4626L16.4195 22.5984V42.7306C16.4195 44.8645 14.7621 46.5937 12.7169 46.5937C10.673 46.5937 9.01432 44.8645 9.01432 42.7306V13.2711C9.01432 11.7071 9.91785 10.2994 11.301 9.70155C11.9774 9.40843 12.7219 9.33153 13.4402 9.48061C14.1584 9.6297 14.8181 9.99804 15.3355 10.5389L37.2472 33.4031V13.2711C37.2472 11.137 38.9046 9.40799 40.9498 9.40799C42.9952 9.40799 44.6523 11.137 44.6523 13.2711V42.7306C44.6523 44.2927 43.7488 45.7021 42.3656 46.3002C41.9168 46.4943 41.4356 46.594 40.9498 46.5937Z" fill="white"/>
</g>
<defs>
<clipPath id="clip0_215_160">
<rect width="53.6667" height="56" fill="white"/>
</clipPath>
</defs>
</svg>
