<svg width="54" height="56" viewBox="0 0 54 56" fill="none" xmlns="http://www.w3.org/2000/svg">
<g clip-path="url(#clip0_215_527)">
<path d="M36.7449 0L34.784 4.2768C34.7043 4.45088 34.5985 4.60326 34.4725 4.72524C34.3464 4.84721 34.2028 4.93637 34.0496 4.98762C33.8965 5.03887 33.7369 5.05119 33.5801 5.0239C33.4232 4.9966 33.2721 4.93021 33.1354 4.82853C32.8593 4.62356 32.6585 4.28748 32.5772 3.89421C32.4959 3.50093 32.5408 3.08269 32.7019 2.73147L33.9546 0H30.4328C30.435 0.269196 30.3808 0.534285 30.2758 0.768L24.8579 12.6715C23.5293 15.6027 20.6782 17.3019 18.4615 17.3019H16.727C16.4113 17.2944 16.1104 17.1296 15.8892 16.8429C15.668 16.5562 15.5441 16.1705 15.5441 15.7688C15.5441 15.3671 15.668 14.9814 15.8892 14.6947C16.1104 14.408 16.4113 14.2432 16.727 14.2357H18.4615C20.0328 14.2357 21.8331 12.8152 22.7274 11.2371C23.3236 10.1848 25.0277 6.4392 27.8396 0H24.6384C19.582 13.8525 16.569 11.1696 7.5301 11.1696C6.93159 12.3224 6.32994 13.4795 5.74149 14.6189H12.0494C12.3652 14.6264 12.666 14.7912 12.8872 15.0779C13.1084 15.3646 13.2323 15.7503 13.2323 16.152C13.2323 16.5537 13.1084 16.9394 12.8872 17.2261C12.666 17.5128 12.3652 17.6776 12.0494 17.6851H4.17027C3.65677 18.696 3.15082 19.7131 2.65251 20.7363L22.4536 20.5592L21.5675 20.56C22.7666 20.5909 24.7066 19.6981 25.6457 17.82L30.3143 8.43333C30.4879 8.09731 30.7584 7.86149 31.0674 7.77667C31.3763 7.69184 31.6992 7.7648 31.9663 7.97983C32.2334 8.19486 32.4234 8.53475 32.4954 8.92628C32.5674 9.31781 32.5156 9.72965 32.3511 10.0731L27.6809 19.4632C26.273 22.2771 23.6081 23.6707 21.5323 23.6259L1.22154 23.8152C0.279649 25.9693 -4.78141e-06 27.3768 0.0117348 28.0333H26.9356L40.6728 1.20453C39.8056 0.5688 38.5637 0.0549333 36.9742 0H36.7449Z" fill="url(#paint0_linear_215_527)"/>
<path d="M26.936 28.0333H0.0119357C-0.0746437 29.6573 0.323664 31.3448 1.0729 32.8272H19.099C21.904 32.4352 24.3923 33.9192 26.5648 37.2784L31.0851 46.5744C31.1695 46.7447 31.2266 46.9346 31.2532 47.133C31.2799 47.3314 31.2756 47.5346 31.2405 47.7309C31.2054 47.9272 31.1403 48.1128 31.0489 48.2771C30.9574 48.4414 30.8414 48.5811 30.7075 48.6884C30.5736 48.7957 30.4244 48.8683 30.2684 48.9022C30.1124 48.9361 29.9527 48.9306 29.7983 48.886C29.644 48.8414 29.4981 48.7586 29.369 48.6422C29.2398 48.5259 29.1299 48.3783 29.0456 48.208C26.2585 42.4613 24.5615 39.2107 23.9542 38.456C23.0433 37.3243 21.8767 35.9021 19.099 35.9021H2.58668L4.195 39.1512H10.6319C10.9476 39.1587 11.2484 39.3235 11.4696 39.6102C11.6908 39.8969 11.8148 40.2825 11.8148 40.6843C11.8148 41.086 11.6908 41.4716 11.4696 41.7583C11.2484 42.045 10.9476 42.2098 10.6319 42.2173H5.71276L7.22884 45.2803C18.0756 45.2803 19.5822 46.8136 23.3062 55.9571H26.4658C23.7676 49.8275 22.0624 46.2117 21.3507 45.1096C20.2831 43.4568 18.8441 42.2173 16.9815 42.2173H15.3095C14.9937 42.2098 14.6929 42.045 14.4717 41.7583C14.2505 41.4716 14.1265 41.086 14.1265 40.6843C14.1265 40.2825 14.2505 39.8969 14.4717 39.6102C14.6929 39.3235 14.9937 39.1587 15.3095 39.1512H16.9815C19.537 39.1512 22.4048 41.2395 23.44 43.7813L29.1592 55.6848C29.1993 55.7728 29.2309 55.8643 29.2559 55.9571H33.5649L32.1882 52.9549C32.107 52.781 32.0535 52.5882 32.0311 52.3879C32.0087 52.1875 32.0176 51.9835 32.0575 51.7876C32.0973 51.5917 32.1673 51.4077 32.2633 51.2463C32.3593 51.085 32.4795 50.9494 32.6169 50.8474C32.7543 50.7454 32.9062 50.6791 33.0639 50.6521C33.2216 50.6252 33.3819 50.6383 33.5356 50.6906C33.6893 50.7429 33.8334 50.8333 33.9594 50.9568C34.0855 51.0802 34.1911 51.2342 34.2701 51.4099L36.3554 55.9571H37.4155C38.2553 55.9605 38.8704 55.8469 40.0705 54.8621L26.936 28.0333Z" fill="url(#paint1_linear_215_527)"/>
<path d="M40.6728 1.20459L38.9989 4.44512L41.073 8.40272C41.194 8.6335 41.2635 8.90173 41.2741 9.1788C41.2848 9.45588 41.2361 9.73143 41.1333 9.97607C41.0305 10.2207 40.8774 10.4253 40.6904 10.568C40.5034 10.7107 40.2895 10.7862 40.0714 10.7865C39.8727 10.7869 39.6771 10.7248 39.5019 10.6057C39.3268 10.4865 39.1775 10.3141 39.0674 10.1038L37.5608 7.22886L35.8969 10.4491L41.8407 22.8235C43.2304 25.7158 43.2237 29.3041 41.8239 32.1883C41.8058 32.225 41.7866 32.2608 41.7665 32.2958L41.0386 33.5457C40.9264 33.7382 40.7803 33.8947 40.6119 34.0023C40.4436 34.11 40.2577 34.166 40.0693 34.1657C39.8461 34.1654 39.6274 34.0863 39.4375 33.9373C39.2475 33.7882 39.0939 33.575 38.9936 33.3215C38.8933 33.0679 38.8503 32.7838 38.8694 32.501C38.8885 32.2182 38.969 31.9476 39.1018 31.7195L39.7978 30.5254C40.6929 28.6385 40.6888 26.3059 39.784 24.4222L34.4332 13.2827L26.813 28.0337L32.8056 16.543L35.765 22.3587C36.5083 23.8197 36.9024 25.5236 36.8997 27.2638C36.8969 29.004 36.4974 30.7058 35.7495 32.163L32.2365 39.0089L26.813 28.0337L33.7848 42.143L36.9971 36.695C37.191 36.3773 37.4753 36.1693 37.7887 36.1157C38.1021 36.0622 38.4195 36.1675 38.6725 36.4089C38.9254 36.6502 39.0937 37.0084 39.141 37.4061C39.1883 37.8038 39.1108 38.2092 38.9253 38.535L35.1588 44.9235L36.9906 48.6305L45.8703 30.7963C46.8829 28.7627 46.8946 26.1249 45.9001 24.0771L41.6057 15.2334C41.4429 14.8876 41.3937 14.4743 41.4687 14.0827C41.5437 13.6911 41.7368 13.3529 42.0064 13.1411C42.2759 12.9293 42.6002 12.861 42.909 12.951C43.2178 13.041 43.4864 13.282 43.6566 13.6219L47.9507 22.4659C49.4266 25.5051 49.409 29.4187 47.9067 32.4371L38.5272 51.275C38.4895 51.351 38.4463 51.4187 38.4004 51.483L40.0693 54.8625C40.7967 54.1318 41.3143 53.5179 41.6225 53.0214C45.159 47.3233 48.84 40.4771 52.6652 32.483C53.975 29.7457 54.0092 26.3539 52.7134 23.6243C47.7834 13.2427 42.3065 2.23446 40.6728 1.20459Z" fill="url(#paint2_linear_215_527)"/>
</g>
<defs>
<linearGradient id="paint0_linear_215_527" x1="2729.61" y1="1813.39" x2="2159.29" y2="1067.51" gradientUnits="userSpaceOnUse">
<stop stop-color="#520BF5"/>
<stop offset="1" stop-color="#9D1FE0"/>
</linearGradient>
<linearGradient id="paint1_linear_215_527" x1="2703.26" y1="1005.2" x2="2015.15" y2="1868.64" gradientUnits="userSpaceOnUse">
<stop stop-color="#9E1FA7"/>
<stop offset="1" stop-color="#E540AE"/>
</linearGradient>
<linearGradient id="paint2_linear_215_527" x1="2712.18" y1="2684.1" x2="831.698" y2="2684.1" gradientUnits="userSpaceOnUse">
<stop stop-color="#4B6AF2"/>
<stop offset="1" stop-color="#4CA7EB"/>
</linearGradient>
<clipPath id="clip0_215_527">
<rect width="53.6667" height="56" fill="white"/>
</clipPath>
</defs>
</svg>
