<svg width="54" height="56" viewBox="0 0 54 56" fill="none" xmlns="http://www.w3.org/2000/svg">
<path d="M39.3314 40.299C39.6605 37.4408 39.562 37.0213 41.6021 37.4846L42.1199 37.5318C43.6888 37.6062 45.7412 37.2685 46.947 36.684C49.5427 35.427 51.0814 33.3292 48.5226 33.88C42.6847 35.137 42.2834 33.0741 42.2834 33.0741C48.448 23.5301 51.0248 11.4144 48.8002 8.44858C42.7333 0.359645 32.2318 4.18471 32.0562 4.28358L32 4.29452C30.8466 4.04471 29.5556 3.89552 28.1054 3.87102C25.4635 3.82552 23.459 4.59377 21.9383 5.79689C21.9383 5.79689 3.20404 -2.25704 4.0757 15.9255C4.26102 19.7934 9.3887 45.1933 15.505 37.5213C17.7406 34.7161 19.9007 32.344 19.9007 32.344C20.9732 33.0873 22.2578 33.467 23.6045 33.3305L23.7089 33.2378C23.6762 33.586 23.6905 33.9268 23.7504 34.3302C22.1752 36.1673 22.6381 36.4897 19.4881 37.1661C16.3008 37.8512 18.1733 39.0714 19.3954 39.3903C20.8776 39.7771 24.3059 40.3248 26.6228 36.9412L26.5306 37.3271C27.1486 37.8433 27.1071 41.0358 27.1943 43.3165C27.2819 45.5976 27.4283 47.726 27.8739 48.9812C28.3196 50.236 28.8454 53.4682 32.9853 52.5425C36.4451 51.7707 39.0903 50.6573 39.3314 40.299Z" fill="black"/>
<path d="M31.6374 54.7995C29.8064 54.7995 28.614 54.0606 27.8899 53.347C26.7969 52.2708 26.3633 50.8844 26.1042 50.0562L25.9923 49.7105C25.4707 48.2414 25.2938 46.1261 25.189 43.4022C25.173 42.9932 25.1621 42.5719 25.15 42.1252C25.1412 41.7984 25.1303 41.3884 25.1143 40.9597C24.4547 41.2879 23.7545 41.5187 23.0339 41.6457C21.743 41.8758 20.3552 41.8014 18.9083 41.4239C17.8874 41.1574 16.8266 40.6053 16.222 39.7526C14.4598 41.363 12.779 41.1447 11.8633 40.8258C10.2478 40.2636 8.80219 38.6838 7.44333 35.9971C6.47523 34.083 5.539 31.5893 4.66021 28.5845C3.12987 23.352 2.15758 17.8409 2.07121 16.0314C1.79953 10.3679 3.26068 6.31754 6.41318 3.99398C11.3862 0.328603 18.9209 2.48417 21.6679 3.46285C23.5136 2.30217 25.685 1.73735 28.1385 1.77804C29.4563 1.80035 30.7112 1.9211 31.8768 2.1381C33.0926 1.7391 35.4942 1.16642 38.2434 1.20229C43.3086 1.26529 47.5059 3.32504 50.3809 7.15885C52.4328 9.8941 51.4181 15.638 50.6312 18.8187C49.5234 23.2925 47.5826 28.0508 45.1987 32.193C45.846 32.1979 46.7839 32.1169 48.1172 31.8295C50.7477 31.2629 51.5171 32.7347 51.7259 33.3935C52.5623 36.0369 48.9264 38.0345 47.7923 38.584C46.3391 39.288 43.9698 39.7167 42.0294 39.624L41.9447 39.6183L41.4349 39.5715L41.3846 40.0151L41.3359 40.4487C41.2055 45.6982 40.4869 49.0228 39.0081 51.2195C37.4581 53.5225 35.3039 54.1678 33.4063 54.5922C32.7589 54.7365 32.1707 54.7995 31.6374 54.7995ZM27.7843 35.6935C28.9662 36.6805 29.0697 38.5377 29.1624 42.0084C29.1741 42.4415 29.185 42.8514 29.1997 43.2342C29.2442 44.3936 29.3486 47.1083 29.7561 48.2554C29.8135 48.4177 29.8651 48.5822 29.9196 48.7568C30.3737 50.2075 30.6013 50.9351 32.5648 50.4972C34.2129 50.1284 35.0603 49.7976 35.7236 48.8124C36.6875 47.38 37.2267 44.4986 37.3256 40.2483L39.331 40.299L37.3394 40.0497L37.3981 39.5308C37.5889 37.8202 37.7264 36.5847 38.822 35.7674C39.7012 35.112 40.7028 35.1755 41.5007 35.3255C40.624 34.6343 40.3817 33.8236 40.3171 33.4911L40.1498 32.6314L40.6198 31.9039C43.327 27.7126 45.5592 22.5615 46.7449 17.7709C47.9633 12.8485 47.5919 10.2345 47.2204 9.7401C42.3028 3.18329 33.7752 5.89054 32.8847 6.19767L32.7342 6.28254L31.9795 6.4291L31.5929 6.34554C30.5271 6.11454 29.3431 5.98679 28.074 5.96535C26.0799 5.93035 24.4712 6.4221 23.1522 7.46642L22.2369 8.19048L21.1749 7.73417C18.9058 6.76598 12.241 4.81954 8.7242 7.41873C6.77208 8.8616 5.8828 11.6887 6.0807 15.8218C6.14611 17.1864 7.03454 22.3519 8.50031 27.3617C10.5258 34.2852 12.3664 36.5851 13.1349 36.8524C13.2691 36.8997 13.6171 36.6175 13.9634 36.1835C15.4074 34.3772 16.9026 32.6162 18.4471 30.9029L19.6085 29.6275L21.0126 30.601C21.5786 30.9934 22.2029 31.2161 22.844 31.2581L26.1927 28.2779L25.7076 33.4439C25.6967 33.5598 25.6913 33.7177 25.7349 34.0109L25.8808 34.99L25.2477 35.7285L25.1747 35.8142L27.0145 36.7002L27.7843 35.6935Z" fill="black"/>
<path d="M48.5226 33.8799C42.6843 35.1369 42.283 33.0741 42.283 33.0741C48.4476 23.5296 51.0244 11.4134 48.8006 8.4485C42.7337 0.360004 32.2314 4.18507 32.0562 4.28438L31.9996 4.29488C30.8462 4.04507 29.5552 3.89632 28.1041 3.87182C25.4623 3.82675 23.4586 4.59457 21.9379 5.79769C21.9379 5.79769 3.20321 -2.25581 4.07445 15.9263C4.25977 19.7946 9.38745 45.1946 15.5038 37.5226C17.7393 34.7173 19.899 32.3452 19.899 32.3452C20.9719 33.0885 22.2561 33.4683 23.6024 33.3318L23.7072 33.239C23.6745 33.5873 23.6896 33.9281 23.7492 34.3314C22.1735 36.1685 22.6364 36.4909 19.4864 37.1673C16.2991 37.8524 18.1716 39.0726 19.3942 39.3916C20.8759 39.7783 24.3047 40.3261 26.6212 36.9424L26.5285 37.3283C27.1461 37.8446 27.5796 40.6848 27.5071 43.2595C27.4341 45.8342 27.3855 47.6021 27.8723 48.9829C28.3586 50.3636 28.8433 53.4699 32.984 52.5441C36.4438 51.7706 38.2366 49.7656 38.4865 46.4213C38.6635 44.0435 39.0639 44.3953 39.0894 42.2694L39.411 41.2632C39.7817 38.0401 39.4697 37.0006 41.6017 37.4841L42.1195 37.5313C43.6884 37.6057 45.7416 37.2679 46.947 36.6834C49.5423 35.4274 51.0814 33.3291 48.5226 33.8799Z" fill="#336791"/>
<path d="M31.8466 53.5093C28.3951 53.5093 27.3017 50.6573 26.8543 49.4909C26.1994 47.7816 26.0581 41.1482 26.204 35.7083C26.2062 35.6166 26.2257 35.5262 26.2615 35.4424C26.2973 35.3586 26.3486 35.2829 26.4126 35.2199C26.4765 35.1569 26.5517 35.1077 26.6339 35.0751C26.7162 35.0425 26.8037 35.0273 26.8916 35.0302C26.9794 35.0327 27.0659 35.0532 27.1461 35.0906C27.2263 35.128 27.2987 35.1815 27.359 35.2481C27.4194 35.3147 27.4666 35.3931 27.4979 35.4787C27.5292 35.5644 27.544 35.6556 27.5415 35.7473C27.3734 42.0214 27.6119 47.7072 28.0966 48.9724C28.853 50.9451 30.0001 52.6706 33.2432 51.9457C36.3219 51.2566 37.4749 50.0386 37.9885 46.9319C38.3826 44.548 39.162 37.7659 39.258 36.4276C39.2645 36.3361 39.2881 36.2469 39.3276 36.165C39.3672 36.0831 39.4218 36.0101 39.4884 35.9503C39.555 35.8905 39.6323 35.8449 39.7158 35.8163C39.7993 35.7877 39.8874 35.7766 39.975 35.7836C40.1518 35.7976 40.3161 35.8842 40.4318 36.0244C40.5476 36.1647 40.6052 36.3471 40.5921 36.5317C40.4919 37.9251 39.7163 44.6941 39.3071 47.1695C38.7008 50.8388 37.1332 52.5031 33.5237 53.3107C32.9103 53.4476 32.3531 53.5089 31.8466 53.5093ZM13.132 39.5789C12.8303 39.5778 12.5308 39.5261 12.2448 39.4258C10.003 38.6453 7.86764 34.8355 5.89791 28.1011C4.39859 22.9749 3.44852 17.6243 3.36509 15.8852C3.11814 10.7297 4.39021 7.08226 7.14691 5.04482C12.6004 1.01282 21.7744 4.85232 22.1623 5.0177C22.3266 5.08772 22.4575 5.22299 22.5262 5.39373C22.5949 5.56447 22.5958 5.7567 22.5287 5.92814C22.4616 6.09957 22.332 6.23617 22.1683 6.30788C22.0047 6.37959 21.8205 6.38054 21.6562 6.31051C21.5677 6.27289 12.7706 2.59526 7.91753 6.18582C5.56039 7.9297 4.47825 11.1698 4.70089 15.8156C4.77091 17.2808 5.6585 22.5028 7.1771 27.6933C8.93552 33.7054 10.9367 37.499 12.6679 38.1014C12.9396 38.1959 13.7664 38.4834 14.9483 37.0003C16.3266 35.2729 17.7566 33.5912 19.2362 31.9576C19.36 31.8288 19.5272 31.7556 19.702 31.7538C19.8769 31.752 20.0455 31.8216 20.1717 31.9479C20.298 32.0741 20.3718 32.2469 20.3775 32.4293C20.3832 32.6116 20.3203 32.7891 20.2022 32.9236C20.182 32.9455 18.17 35.1404 15.9772 37.8932C14.9386 39.1965 13.9433 39.5789 13.132 39.5789ZM42.2416 33.6967C42.1203 33.6965 42.0013 33.662 41.8974 33.5967C41.7935 33.5314 41.7085 33.4379 41.6516 33.3262C41.5947 33.2144 41.5679 33.0886 41.5742 32.9623C41.5805 32.8359 41.6196 32.7136 41.6873 32.6086C47.9189 22.9596 50.1062 11.3006 48.2329 8.80251C45.875 5.65864 42.5455 4.0167 38.3365 3.92176C35.22 3.85176 32.743 4.68214 32.338 4.82695L32.2361 4.87026C31.829 5.0037 31.5166 4.77095 31.3988 4.49882C31.3316 4.34291 31.3214 4.16674 31.3702 4.00354C31.4189 3.84034 31.5232 3.70138 31.6634 3.61289C31.6826 3.60107 31.7439 3.57395 31.8432 3.53589C32.5312 3.27295 35.046 2.48545 38.1608 2.52264C42.8181 2.57426 46.6653 4.44807 49.2857 7.94239C50.5255 9.5957 50.5284 13.4046 49.2937 18.3929C48.035 23.4789 45.6666 28.9446 42.7963 33.3891C42.668 33.5891 42.4566 33.6967 42.2416 33.6967ZM42.5602 38.1636C41.4961 38.1636 40.5423 38.0069 39.9712 37.6499C39.3842 37.2829 39.2723 36.7841 39.2576 36.5194C39.0975 33.5838 40.6496 33.0728 41.4412 32.8396C41.3309 32.6655 41.1741 32.4608 41.0118 32.2494C40.5502 31.6474 39.918 30.8232 39.4308 29.5903C39.3545 29.3978 39.1155 28.9503 38.8388 28.4318C37.3382 25.6239 34.2159 19.7811 36.2217 16.7891C37.1499 15.4044 38.9985 14.8593 41.7221 15.1633C40.9209 12.6162 37.1055 4.64845 28.0522 4.49357C25.3294 4.44632 23.0964 5.32001 21.4185 7.08795C17.6618 11.0469 17.7976 18.2101 17.7997 18.2818C17.8021 18.3735 17.7871 18.4647 17.7556 18.5503C17.7241 18.6358 17.6768 18.7141 17.6163 18.7806C17.5559 18.8471 17.4834 18.9006 17.4032 18.9379C17.3229 18.9752 17.2364 18.9956 17.1486 18.998C17.0608 19.0004 16.9734 18.9848 16.8914 18.9519C16.8093 18.9191 16.7343 18.8697 16.6706 18.8066C16.6069 18.7435 16.5557 18.668 16.5199 18.5842C16.4842 18.5005 16.4646 18.4102 16.4623 18.3186C16.4539 18.0005 16.3139 10.4834 20.468 6.10532C22.4121 4.05651 24.9714 3.04501 28.0744 3.09795C33.8662 3.19726 37.5944 6.26982 39.7016 8.82964C41.9988 11.6196 43.125 14.6969 43.2176 15.7242C43.2868 16.4881 42.7615 16.6408 42.6554 16.6635L42.4139 16.6692C39.741 16.2225 38.0262 16.5327 37.3172 17.5897C35.7915 19.8651 38.7453 25.3921 40.0064 27.7524C40.3284 28.3544 40.5607 28.7897 40.6672 29.0583C41.0814 30.1066 41.6219 30.8109 42.0558 31.3771C42.4378 31.8749 42.7686 32.3068 42.8868 32.8134C42.9417 32.914 43.7212 34.1171 48.3461 33.1209C49.5054 32.8716 50.2006 33.0846 50.4131 33.7553C50.8312 35.0744 48.4858 36.6131 47.1873 37.2422C46.0238 37.8066 44.1669 38.1636 42.5602 38.1636ZM40.5913 36.4044C40.7381 36.5588 41.4722 36.8253 42.9925 36.757C44.3442 36.6966 45.7697 36.3899 46.625 35.9756C47.7189 35.4454 48.4493 34.8526 48.8275 34.4479L48.6178 34.4881C45.6607 35.1251 43.569 35.0403 42.4009 34.2357C42.3224 34.1816 42.2468 34.123 42.1745 34.0603C42.0479 34.1123 41.9309 34.1465 41.8474 34.1709C41.185 34.3648 40.4999 34.5656 40.5913 36.4044ZM21.4885 40.3047C20.7539 40.3047 19.9808 40.2001 19.1913 39.9941C18.3733 39.7806 16.9943 39.1379 17.0153 38.0822C17.0392 36.8979 18.6899 36.5426 19.3112 36.4092C21.556 35.9266 21.7023 35.7333 22.4038 34.8036C22.6084 34.5328 22.8629 34.1954 23.21 33.7912C23.7253 33.1892 24.2884 32.8843 24.8837 32.8843C25.2984 32.8843 25.6384 33.0308 25.8632 33.1284C26.5793 33.4381 27.1767 34.1871 27.4224 35.0827C27.6442 35.8908 27.5382 36.6686 27.1247 37.2728C25.7676 39.256 23.8184 40.3047 21.4885 40.3047ZM18.4605 38.1421C18.6622 38.3049 19.0664 38.5223 19.5162 38.6396C20.2001 38.8181 20.8634 38.9086 21.4889 38.9086C23.3949 38.9086 24.9253 38.0853 26.0367 36.4613C26.2686 36.1226 26.199 35.6926 26.1369 35.4664C26.007 34.9926 25.6841 34.5616 25.3517 34.4177C25.1714 34.3398 25.0217 34.2803 24.8842 34.2803C24.8104 34.2803 24.5856 34.2803 24.2075 34.7218C23.9465 35.028 23.6956 35.3435 23.4553 35.6676C22.5815 36.8253 22.1811 37.2181 19.5816 37.7768C18.9473 37.9124 18.6219 38.0507 18.4605 38.1421ZM23.6046 34.9221C23.4448 34.9219 23.2905 34.862 23.1694 34.7534C23.0483 34.6447 22.9684 34.4945 22.9442 34.3298C22.9276 34.2139 22.9164 34.0972 22.9107 33.9802C21.2067 33.9469 19.5628 33.1839 18.3146 31.8251C16.7365 30.107 16.0183 27.7266 16.3445 25.2945C16.6987 22.6533 16.5663 20.3219 16.495 19.0693C16.4753 18.7211 16.461 18.4695 16.4619 18.2954C16.4631 18.0744 16.4673 17.4886 18.344 16.4959C19.0114 16.1429 20.3498 15.5269 21.8117 15.3689C24.2339 15.1078 25.8305 16.2334 26.3084 18.5391C27.5985 24.7638 26.4107 27.517 25.5433 29.5278C25.3818 29.9023 25.2292 30.2558 25.1072 30.5983L24.9995 30.9002C24.5412 32.1825 24.145 33.2903 24.2666 34.1176C24.2799 34.2082 24.276 34.3006 24.2551 34.3897C24.2342 34.4787 24.1967 34.5626 24.1447 34.6365C24.0928 34.7104 24.0273 34.7729 23.9522 34.8204C23.8771 34.8679 23.7937 34.8995 23.7069 34.9134L23.6046 34.9221ZM17.8039 18.4888L17.8299 18.9871C17.9037 20.2882 18.0412 22.7093 17.6689 25.4883C17.4002 27.4943 17.9872 29.4521 19.2802 30.8591C20.302 31.9712 21.6466 32.585 23.0285 32.585H23.057C23.2117 31.9047 23.4687 31.1863 23.7454 30.4124L23.8523 30.1123C23.9903 29.7255 24.1517 29.351 24.3228 28.9546C25.1575 27.0191 26.1969 24.6098 24.9999 18.8344C24.763 17.6903 24.1882 17.0284 23.2436 16.8101C21.3032 16.3629 18.4115 17.8859 17.8039 18.4888ZM21.8415 18.1926C21.808 18.4393 22.2746 19.0982 22.8834 19.1861C23.4909 19.2749 24.0108 18.7596 24.0439 18.5128C24.0771 18.2661 23.6108 17.9939 23.0021 17.9056C22.3937 17.8172 21.8738 17.9458 21.8415 18.1926ZM23.023 19.4289L22.8524 19.4167C22.475 19.362 22.0935 19.1139 21.8323 18.7526C21.7405 18.6257 21.5908 18.3798 21.6206 18.1602C21.6629 17.8382 22.0394 17.6453 22.6268 17.6453C22.758 17.6453 22.8947 17.6553 23.0322 17.6754C23.3534 17.7218 23.6515 17.8185 23.8716 17.9467C24.2532 18.1689 24.2813 18.417 24.2641 18.5452C24.2171 18.9009 23.675 19.4289 23.023 19.4289ZM22.0633 18.2337C22.0822 18.3859 22.4436 18.8882 22.914 18.956L23.0234 18.9639C23.4578 18.9639 23.7823 18.6073 23.8205 18.4905C23.7802 18.4109 23.501 18.2131 22.9715 18.1361C22.8574 18.1191 22.7424 18.1104 22.6272 18.1103C22.2868 18.1103 22.1061 18.1904 22.0633 18.2337ZM40.3456 17.689C40.3787 17.9358 39.9125 18.5946 39.3041 18.683C38.6962 18.7714 38.1759 18.2564 38.1423 18.0097C38.1105 17.7629 38.5767 17.4904 39.1847 17.4024C39.7926 17.3136 40.3121 17.4427 40.3456 17.689ZM39.1637 18.809C38.5784 18.809 38.0732 18.3339 38.0317 18.0254C37.9834 17.6553 38.5675 17.374 39.1687 17.2869C39.3012 17.2677 39.4324 17.2581 39.5586 17.2581C40.0777 17.2581 40.4215 17.4169 40.4559 17.6733C40.4781 17.8391 40.3561 18.095 40.146 18.326C40.0073 18.4778 39.7159 18.7408 39.3188 18.7981L39.1637 18.809ZM39.5591 17.4908C39.4433 17.4908 39.3226 17.5 39.2002 17.5175C38.596 17.6054 38.2354 17.8583 38.253 17.9939C38.2732 18.1431 38.6589 18.5767 39.1641 18.5767L39.2886 18.5675C39.6186 18.5198 39.8664 18.2949 39.9846 18.1654C40.1704 17.962 40.2442 17.7704 40.2353 17.7052C40.2236 17.6186 40.0006 17.4908 39.5591 17.4908ZM41.2215 31.8596C41.1003 31.8597 40.9813 31.8254 40.8774 31.7603C40.7734 31.6953 40.6884 31.602 40.6314 31.4904C40.5743 31.3788 40.5475 31.2531 40.5536 31.1268C40.5598 31.0005 40.5988 30.8783 40.6664 30.7733C42.091 28.553 41.8303 26.2889 41.5783 24.0993C41.4705 23.1665 41.3598 22.2018 41.3883 21.2761C41.4177 20.3236 41.5338 19.5379 41.6458 18.7779C41.7787 17.8776 41.9045 17.0271 41.8525 16.0173C41.8477 15.9258 41.8603 15.8342 41.8895 15.7478C41.9187 15.6613 41.9639 15.5817 42.0226 15.5135C42.0813 15.4453 42.1522 15.3898 42.2315 15.3502C42.3107 15.3106 42.3966 15.2877 42.4843 15.2828C42.572 15.2778 42.6598 15.291 42.7427 15.3214C42.8255 15.3519 42.9018 15.3991 42.9672 15.4603C43.0992 15.5839 43.1787 15.7572 43.1883 15.9421C43.2478 17.0962 43.1057 18.0587 42.9682 18.9901C42.8621 19.7089 42.7522 20.4523 42.7258 21.3207C42.7002 22.1406 42.8004 23.0112 42.9065 23.9326C43.1749 26.2609 43.4788 28.8999 41.7783 31.5499C41.717 31.6453 41.6342 31.7235 41.5371 31.7775C41.4399 31.8316 41.3315 31.8598 41.2215 31.8596Z" fill="black"/>
</svg>
