<svg width="54" height="56" viewBox="0 0 54 56" fill="none" xmlns="http://www.w3.org/2000/svg">
<path d="M26.8333 32.3295C29.1489 32.3295 31.026 30.3707 31.026 27.9545C31.026 25.5382 29.1489 23.5795 26.8333 23.5795C24.5178 23.5795 22.6406 25.5382 22.6406 27.9545C22.6406 30.3707 24.5178 32.3295 26.8333 32.3295Z" fill="#00D8FF"/>
<path d="M26.8334 37.9855C21.7939 38.1127 16.7672 37.4038 11.9409 35.8855C9.71138 35.148 7.63198 33.9863 5.80776 32.459C5.11165 31.9372 4.53195 31.2645 4.10844 30.487C3.68493 29.7095 3.42763 28.8455 3.35419 27.9545C3.35419 25.0617 6.39977 22.2267 11.5015 20.3717C16.4568 18.728 21.6343 17.9314 26.8334 18.0127C31.9631 17.9379 37.0712 18.7202 41.964 20.3297C44.1111 21.044 46.12 22.1496 47.8975 23.5952C48.5817 24.0927 49.1527 24.741 49.5701 25.4943C49.9874 26.2477 50.2409 27.0875 50.3125 27.9545C50.3125 30.961 46.908 34.0077 41.424 35.9012C36.6911 37.3701 31.7704 38.073 26.8334 37.9855ZM26.8334 20.1057C21.8593 20.0364 16.9064 20.7937 12.1606 22.3492C7.46472 24.059 5.35998 26.397 5.35998 27.9492C5.35998 29.5732 7.62236 32.1265 12.5899 33.8992C17.207 35.3445 22.0144 36.0172 26.8334 35.8925C31.5567 35.9806 36.2651 35.3137 40.7951 33.915C45.9521 32.1317 48.3 29.575 48.3 27.9545C48.2154 27.3984 48.0212 26.8666 47.7296 26.3928C47.4381 25.919 47.0555 25.5134 46.6062 25.2017C45.0159 23.9192 43.2213 22.9394 41.3049 22.3072C36.6242 20.7738 31.7388 20.0306 26.8334 20.1057Z" fill="#00D8FF"/>
<path d="M17.3075 49.7752C16.5252 49.7939 15.752 49.5959 15.0669 49.2012C12.6654 47.7557 11.8335 43.5872 12.8414 38.0485C13.9528 32.7479 15.8783 27.6697 18.5435 23.0107C21.0436 18.3366 24.2442 14.1101 28.0241 10.4912C29.6897 8.90694 31.6111 7.64315 33.6993 6.75845C34.4546 6.3891 35.2785 6.19763 36.1127 6.19763C36.9468 6.19763 37.7707 6.3891 38.526 6.75845C41.0232 8.25995 41.85 12.859 40.6844 18.7617C39.5388 23.7747 37.6632 28.5747 35.1232 32.9945C32.7111 37.6133 29.6112 41.8031 25.9395 45.4072C24.2134 47.0536 22.2102 48.3524 20.0311 49.238C19.1587 49.5758 18.2379 49.7575 17.3075 49.7752ZM20.281 24.0502C17.7387 28.5115 15.8932 33.3667 14.8137 38.4335C13.8863 43.5347 14.7768 46.6025 16.0715 47.383C17.4132 48.1932 20.6701 47.425 24.6246 43.82C28.1298 40.3671 31.0885 36.3566 33.3907 31.9375C35.8241 27.7121 37.6232 23.123 38.7255 18.3295C39.8224 12.7732 38.8748 9.3712 37.5298 8.5627C37.0257 8.36115 36.487 8.27093 35.9477 8.29773C35.4085 8.32454 34.8805 8.4678 34.397 8.71845C32.5383 9.51881 30.8294 10.6551 29.349 12.075C25.7377 15.5413 22.6804 19.5876 20.2927 24.0607L20.281 24.0502Z" fill="#00D8FF"/>
<path d="M36.3541 49.798C34.0817 49.798 31.1954 48.363 28.1901 45.6662C24.344 42.0144 21.0893 37.7376 18.5519 33.0015C15.9201 28.4066 14.0098 23.4019 12.8934 18.1772C12.4093 15.8786 12.3195 13.5085 12.6284 11.1772C12.6999 10.3124 12.9522 9.47441 13.3678 8.72242C13.7833 7.97043 14.3519 7.32272 15.0334 6.82496C17.5272 5.31821 21.7585 6.86696 26.077 10.8675C29.6669 14.4063 32.7155 18.4987 35.1164 23.002C37.7466 27.4896 39.677 32.3846 40.8353 37.5042C41.3403 39.8872 41.4182 42.3471 41.0651 44.7597C40.981 45.6494 40.7136 46.5097 40.2812 47.2814C39.8487 48.0532 39.2614 48.7182 38.5595 49.231C37.8856 49.6207 37.1244 49.8164 36.3541 49.798ZM20.2877 31.948C22.7218 36.4742 25.8309 40.5673 29.4982 44.0737C33.27 47.46 36.2619 48.188 37.5482 47.3987C38.8899 46.585 39.8794 43.2635 38.8597 37.8892C37.7426 33.0014 35.8911 28.3288 33.374 24.045C31.0828 19.7349 28.1729 15.8162 24.7454 12.425C20.6801 8.65896 17.383 7.81721 16.0396 8.62921C15.6209 8.98426 15.2773 9.42603 15.0305 9.92664C14.7837 10.4272 14.6391 10.9758 14.6057 11.5377C14.3391 13.6169 14.4259 15.7288 14.8623 17.7765C15.9362 22.773 17.7683 27.5583 20.2894 31.9515L20.2877 31.948Z" fill="#00D8FF"/>
</svg>
