<svg width="54" height="56" viewBox="0 0 54 56" fill="none" xmlns="http://www.w3.org/2000/svg">
<g clip-path="url(#clip0_215_466)">
<path d="M4.19271 0H49.474C51.7896 0 53.6667 1.95869 53.6667 4.375V51.625C53.6667 54.0413 51.7896 56 49.474 56H4.19271C1.87708 56 0 54.0413 0 51.625V4.375C0 1.95869 1.87708 0 4.19271 0Z" fill="#3178C6"/>
<path d="M31.5539 43.8539V49.8958C32.4956 50.3993 33.6094 50.7769 34.8951 51.0287C36.1808 51.2805 37.5359 51.4062 38.9605 51.4062C40.3488 51.4062 41.6678 51.2678 42.9172 50.9908C44.1666 50.7139 45.2624 50.2576 46.2039 49.6221C47.1456 48.9864 47.891 48.1556 48.4405 47.1297C48.9897 46.104 49.2643 44.8359 49.2643 43.3254C49.2643 42.2303 49.1073 41.2705 48.7935 40.446C48.4831 39.6271 48.0216 38.8798 47.4353 38.2465C46.8439 37.6044 46.1345 37.0287 45.3077 36.5188C44.4807 36.0091 43.548 35.5276 42.5097 35.0746C41.7491 34.7471 41.0672 34.4295 40.4634 34.1211C39.8599 33.8126 39.3467 33.4981 38.9243 33.1769C38.5017 32.856 38.1757 32.5161 37.9463 32.1573C37.717 31.7986 37.6023 31.3928 37.6023 30.9396C37.6023 30.5242 37.7048 30.1499 37.9101 29.8163C38.1153 29.4827 38.4052 29.1963 38.7794 28.9573C39.1536 28.7179 39.6123 28.5324 40.1557 28.4001C40.6988 28.268 41.3026 28.2019 41.9665 28.2019C42.4495 28.2019 42.9596 28.2397 43.4966 28.3152C44.0339 28.3907 44.5742 28.5071 45.1175 28.6646C45.6592 28.8212 46.1888 29.0201 46.702 29.2593C47.1996 29.4894 47.6755 29.7675 48.1235 30.0899V24.4447C47.2422 24.0923 46.2793 23.8311 45.2351 23.6611C44.1909 23.4911 42.9927 23.4062 41.6405 23.4062C40.2643 23.4062 38.9605 23.5605 37.7291 23.8689C36.4977 24.1771 35.4141 24.6586 34.4785 25.3131C33.5429 25.9678 32.8036 26.8017 32.2602 27.8149C31.717 28.8282 31.4453 30.0396 31.4453 31.4495C31.4453 33.2493 31.9432 34.785 32.9394 36.0563C33.9354 37.3275 35.4473 38.4037 37.4755 39.2849C38.2242 39.6031 38.9668 39.9367 39.7029 40.2857C40.3911 40.6129 40.9856 40.9526 41.4867 41.305C41.9877 41.6574 42.3831 42.0413 42.6728 42.4567C42.9625 42.8722 43.1073 43.3442 43.1073 43.8729C43.1097 44.2534 43.016 44.6279 42.8357 44.9586C42.6547 45.292 42.3799 45.5816 42.0118 45.827C41.6437 46.0725 41.1848 46.2643 40.6355 46.4028C40.0863 46.5413 39.4433 46.6106 38.7069 46.6106C37.4514 46.6106 36.208 46.3809 34.9766 45.9213C33.745 45.4619 32.6042 44.7729 31.5539 43.8539ZM21.9031 28.8186H29.349V23.8438H8.59506V28.8186H16.0046V50.9688H21.9031V28.8186Z" fill="black"/>
</g>
<defs>
<clipPath id="clip0_215_466">
<rect width="53.6667" height="56" fill="white"/>
</clipPath>
</defs>
</svg>
