<svg width="54" height="56" viewBox="0 0 54 56" fill="none" xmlns="http://www.w3.org/2000/svg">
<g clip-path="url(#clip0_215_555)">
<path d="M53.5906 27.9307C53.5906 43.3556 41.6068 55.8607 26.8237 55.8607C12.0402 55.8607 0.0566101 43.3556 0.0566101 27.9307C0.0566101 12.5048 12.0406 0 26.8237 0C41.607 0 53.5906 12.5048 53.5906 27.9307Z" fill="#DD4814"/>
<path d="M8.62293 24.201C6.64837 24.201 5.04865 25.8703 5.04865 27.9307C5.04865 29.99 6.64837 31.6595 8.62293 31.6595C10.5966 31.6595 12.1964 29.99 12.1964 27.9307C12.1964 25.8703 10.5966 24.201 8.62293 24.201ZM34.1387 41.1493C32.4295 42.1796 31.8432 44.459 32.8306 46.2416C33.8169 48.0253 36.0013 48.6367 37.7107 47.6066C39.4198 46.5774 40.006 44.298 39.0188 42.5141C38.0325 40.7317 35.8468 40.1203 34.1387 41.1493ZM16.3855 27.9307C16.3855 24.2456 18.1397 20.9897 20.8237 19.0184L18.211 14.4522C15.0845 16.6331 12.758 19.9655 11.7911 23.8687C12.9194 24.829 13.6414 26.2914 13.6414 27.9305C13.6414 29.5687 12.9194 31.031 11.7911 31.9915C12.7567 35.8956 15.0833 39.2285 18.211 41.4094L20.8237 36.8419C18.1397 34.8716 16.3855 31.6159 16.3855 27.9307ZM26.8237 17.0376C32.2769 17.0376 36.751 21.4003 37.2206 26.9645L42.3126 26.8861C42.0623 22.7785 40.3424 19.0908 37.7002 16.3791C36.3413 16.9149 34.7716 16.8328 33.4152 16.0169C32.0562 15.1985 31.204 13.818 30.9711 12.3196C29.6203 11.9295 28.2251 11.7316 26.8235 11.7311C24.4369 11.7286 22.0822 12.3023 19.9435 13.4074L22.4266 18.0508C23.8037 17.382 25.3046 17.0361 26.8237 17.0376ZM26.8237 38.8229C25.3047 38.8243 23.8039 38.4784 22.4268 37.8096L19.9437 42.4526C22.0821 43.5589 24.4371 44.1333 26.8239 44.1306C28.2256 44.1303 29.6207 43.9318 30.9713 43.5407C31.2042 42.0422 32.0566 40.663 33.4152 39.8434C34.7728 39.0259 36.3416 38.9454 37.7002 39.4811C40.3427 36.7695 42.0623 33.0818 42.313 28.9741L37.2195 28.8958C36.751 34.4615 32.2771 38.8229 26.8237 38.8229ZM34.1374 14.7096C35.8468 15.7395 38.0314 15.1296 39.0175 13.346C40.0049 11.5623 39.42 9.28267 37.7107 8.25236C36.0013 7.22336 33.8169 7.83454 32.8293 9.61823C31.8434 11.401 32.4293 13.6804 34.1374 14.7096Z" fill="black"/>
</g>
<defs>
<clipPath id="clip0_215_555">
<rect width="53.6667" height="56" fill="white"/>
</clipPath>
</defs>
</svg>
